<?xml version="1.0" standalone="no"?>
<!DOCTYPE svg PUBLIC "-//W3C//DTD SVG 20010904//EN"
 "http://www.w3.org/TR/2001/REC-SVG-20010904/DTD/svg10.dtd">
<svg version="1.0" xmlns="http://www.w3.org/2000/svg"
 width="800.000000pt" height="800.000000pt" viewBox="0 0 800.000000 800.000000"
 preserveAspectRatio="xMidYMid meet">
<metadata>
Created by potrace 1.11, written by Peter Selinger 2001-2013
</metadata>
<g transform="translate(0.000000,800.000000) scale(0.100000,-0.100000)"
fill="#000000" stroke="none">
<path d="M3800 7570 c-30 -4 -79 -15 -107 -24 -29 -9 -78 -17 -110 -18 -32 0
-70 -7 -84 -14 -14 -7 -51 -15 -81 -18 -31 -3 -73 -12 -94 -20 -22 -7 -55 -19
-74 -26 -19 -7 -54 -21 -78 -31 -23 -11 -61 -19 -83 -19 -26 0 -57 -10 -85
-26 -37 -22 -52 -25 -90 -19 -68 10 -123 -19 -187 -99 -24 -29 -26 -30 -126
-31 -62 -1 -107 -7 -113 -13 -7 -7 -23 -12 -38 -12 -14 0 -38 -9 -55 -20 -16
-11 -36 -20 -43 -20 -8 0 -34 -18 -59 -40 -25 -22 -50 -40 -55 -40 -5 0 -21
-9 -36 -20 -16 -12 -51 -23 -82 -26 -32 -4 -70 -16 -92 -30 -21 -13 -48 -24
-60 -24 -63 0 -228 -88 -325 -173 -26 -23 -77 -62 -113 -86 -82 -56 -290 -248
-290 -268 0 -9 14 -31 30 -50 16 -18 30 -41 30 -50 0 -9 12 -27 26 -40 l26
-24 -23 -25 c-12 -13 -30 -24 -40 -24 -25 0 -57 60 -51 98 3 25 1 32 -13 32
-12 0 -15 5 -10 20 10 33 -19 24 -72 -21 -26 -23 -52 -49 -57 -58 -10 -18 -60
-80 -77 -96 -59 -54 -89 -91 -89 -107 0 -39 -52 -118 -98 -148 -56 -37 -146
-140 -179 -205 -14 -27 -60 -83 -102 -124 -42 -41 -86 -89 -98 -106 -47 -63
-59 -77 -79 -98 -30 -32 -64 -92 -64 -113 0 -11 -11 -29 -24 -41 -13 -12 -48
-64 -78 -115 -45 -76 -57 -104 -62 -155 -4 -35 -4 -63 0 -63 17 0 114 87 120
108 7 25 39 46 54 37 16 -10 12 -22 -21 -60 -38 -43 -25 -46 21 -5 18 17 37
30 42 30 4 0 15 14 23 31 17 31 76 64 100 55 7 -2 29 -1 48 4 44 9 53 3 30
-22 -16 -18 -15 -19 58 -16 69 3 74 5 71 24 -4 30 24 51 48 37 19 -13 40 0 40
23 0 26 20 23 84 -11 37 -19 71 -35 76 -35 17 0 0 25 -23 35 -35 15 -26 30 20
33 29 2 65 -6 115 -26 40 -16 87 -32 104 -36 18 -4 40 -16 49 -26 10 -11 38
-22 64 -26 67 -10 119 -35 180 -88 30 -25 62 -46 71 -46 9 0 26 -10 38 -22 12
-13 31 -32 42 -43 l22 -20 19 24 c17 21 23 22 45 12 14 -6 34 -11 45 -11 37 0
83 -31 150 -101 37 -38 73 -69 80 -69 8 1 3 10 -12 23 -15 12 -36 40 -47 62
-29 59 -92 105 -142 105 -12 0 -33 9 -47 20 -31 24 -60 26 -85 3 -17 -15 -18
-15 -18 0 0 10 5 17 10 17 6 0 10 5 10 11 0 17 -71 99 -86 99 -16 0 -54 35
-54 50 0 7 13 8 35 4 51 -9 45 21 -10 47 -23 11 -31 22 -33 47 -2 23 -8 32
-22 32 -10 0 -21 -7 -24 -16 -4 -11 -13 -14 -31 -10 -17 4 -27 1 -33 -11 -9
-15 -11 -15 -26 -1 -8 9 -20 18 -25 20 -15 5 -1 98 15 98 31 0 64 -24 64 -46
0 -16 4 -22 14 -18 16 6 11 69 -7 92 -12 15 -6 15 26 -1 31 -16 77 -70 77 -90
0 -8 15 -24 33 -34 23 -14 36 -31 42 -57 9 -34 15 -40 65 -57 30 -11 66 -21
79 -22 24 -2 30 -9 50 -61 7 -16 14 -26 17 -23 3 3 1 15 -6 26 -9 17 -8 22 5
27 26 10 17 32 -20 50 -45 21 -51 31 -31 53 23 26 20 31 -19 31 -29 0 -37 5
-45 26 -8 21 -7 29 7 39 16 12 16 14 0 36 -9 13 -24 35 -34 49 -43 64 -93 101
-93 70 0 -21 39 -85 59 -98 12 -7 21 -16 21 -22 0 -13 -33 0 -43 17 -4 7 -16
13 -27 13 -26 0 -97 84 -103 123 -2 17 -10 46 -18 64 -7 18 -10 35 -7 39 9 8
67 -28 97 -60 14 -14 28 -26 33 -26 16 0 7 22 -31 73 -21 29 -41 61 -43 72 -2
12 -13 21 -26 23 -12 2 -22 7 -22 12 0 5 -9 18 -21 28 -14 14 -21 34 -22 68
-2 42 -12 64 -70 153 -38 57 -81 114 -95 127 -23 19 -25 26 -15 42 8 14 8 29
0 60 -13 51 1 72 49 72 29 0 34 -3 34 -24 0 -17 -7 -27 -22 -32 -13 -4 -26
-11 -29 -16 -8 -13 45 -68 67 -68 9 0 26 -7 36 -16 14 -13 21 -14 32 -5 11 9
20 10 35 1 27 -14 61 3 61 30 0 37 26 22 59 -34 12 -22 18 -42 13 -45 -5 -3
-12 -16 -16 -28 -9 -27 3 -29 44 -8 26 13 30 21 30 55 0 22 -4 40 -8 40 -4 0
-24 16 -45 36 -34 34 -40 36 -80 30 -49 -8 -64 4 -85 65 -10 30 -10 42 3 73
11 25 12 42 6 54 -12 23 15 59 49 64 24 3 28 12 19 48 -3 9 3 15 16 15 13 0
21 -9 26 -31 3 -17 13 -42 22 -55 10 -13 17 -37 17 -54 0 -30 24 -75 40 -75 4
0 6 27 3 60 -5 51 -3 61 12 66 20 8 54 -29 55 -59 0 -29 28 -75 49 -82 12 -3
21 -19 25 -40 4 -20 24 -53 46 -77 22 -24 58 -67 80 -97 36 -48 40 -59 40
-111 0 -50 3 -58 21 -63 27 -7 22 -42 -6 -42 -13 0 -21 8 -23 23 -3 21 -27 41
-37 30 -6 -6 14 -89 28 -118 6 -14 22 -33 33 -42 14 -12 23 -33 27 -65 4 -41
12 -53 55 -93 54 -50 94 -100 136 -173 27 -47 66 -73 93 -63 21 8 16 -42 -7
-61 -19 -17 -19 -17 3 -57 12 -23 29 -51 39 -64 9 -13 23 -57 30 -99 15 -90
38 -116 91 -103 50 12 67 21 67 35 0 15 18 30 26 22 3 -2 9 -18 14 -36 8 -28
7 -30 -9 -22 -13 7 -22 5 -33 -8 -14 -16 -13 -21 2 -52 24 -46 16 -54 -28 -24
-20 14 -41 25 -47 25 -6 0 -26 -15 -44 -34 -23 -24 -29 -36 -21 -41 9 -6 8
-10 -4 -17 -20 -11 -20 -25 -1 -44 8 -9 15 -22 15 -29 0 -24 -30 -6 -98 57
-34 32 -67 58 -72 58 -15 0 -12 -16 6 -31 31 -26 144 -217 144 -245 0 -3 -9
-4 -20 -1 -15 4 -22 -1 -26 -19 l-6 -23 -37 27 c-20 15 -40 33 -44 40 -7 11
-11 11 -25 0 -14 -11 -15 -10 -9 6 6 15 5 17 -6 8 -8 -7 -16 -9 -20 -6 -3 3
-11 -3 -18 -14 -10 -15 -20 -19 -40 -15 -15 3 -30 0 -33 -6 -4 -6 -16 -11 -26
-11 -16 0 -18 -5 -14 -28 4 -18 1 -32 -9 -40 -12 -10 -21 -4 -53 38 -21 27
-44 50 -51 50 -22 0 -15 -23 15 -46 15 -12 24 -26 19 -30 -4 -4 -20 5 -35 19
-16 15 -35 27 -44 27 -9 0 -20 5 -23 10 -3 6 -17 10 -30 10 -13 0 -27 5 -31
11 -10 17 -85 48 -130 54 -21 3 -48 10 -59 15 -44 19 -90 30 -125 30 -80 0
-207 50 -212 84 -2 11 -12 22 -23 24 -11 2 -35 15 -52 28 -22 17 -43 24 -67
22 -25 -1 -48 8 -87 35 -30 20 -61 37 -69 37 -9 0 -25 7 -37 15 -15 10 -32 13
-49 9 -26 -7 -27 -6 -20 30 5 28 4 36 -8 36 -8 0 -18 -5 -21 -10 -13 -22 -87
-50 -139 -54 -45 -3 -117 -16 -174 -32 -15 -4 -27 -32 -18 -41 3 -4 17 -1 30
7 25 13 56 8 56 -9 0 -5 -18 -25 -40 -44 -37 -32 -51 -57 -31 -57 5 0 14 7 22
16 8 9 22 14 38 11 14 -3 39 4 59 15 21 11 44 17 58 14 12 -3 26 -2 29 4 3 5
17 10 31 10 19 0 24 -5 24 -24 0 -14 5 -28 10 -31 15 -9 12 -25 -5 -32 -9 -3
-24 2 -35 12 -38 34 -110 23 -110 -17 0 -22 7 -23 25 -4 8 7 11 17 7 22 -4 5
1 2 10 -5 10 -7 30 -15 45 -16 38 -4 63 -15 63 -29 0 -6 7 -22 16 -34 15 -22
17 -22 35 -6 18 16 24 11 20 -18 0 -4 8 -10 19 -13 11 -4 25 -15 31 -26 5 -11
14 -17 20 -14 5 4 6 13 0 23 -7 13 -3 24 14 44 18 21 30 26 63 25 39 -2 41 -3
39 -32 -2 -24 2 -31 19 -33 28 -4 37 -37 15 -56 -13 -12 -20 -13 -29 -4 -7 7
-12 18 -12 25 0 17 -31 17 -56 -2 -22 -16 -124 -10 -136 9 -4 5 -19 10 -34 11
-21 0 -29 6 -34 25 -8 34 -32 36 -47 5 -9 -21 -9 -27 3 -32 8 -3 14 -13 14
-23 0 -14 -11 -19 -47 -24 -116 -13 -170 -24 -197 -39 -18 -10 -40 -14 -58
-10 -29 6 -128 -31 -128 -48 0 -9 -69 -33 -76 -26 -3 3 2 17 11 30 15 23 108
77 133 77 18 0 24 20 11 36 -19 23 -68 7 -114 -37 -23 -21 -46 -39 -52 -39 -7
0 -28 -21 -48 -47 -19 -27 -55 -69 -80 -94 -40 -42 -45 -51 -45 -93 l0 -46 26
16 c40 27 50 4 18 -44 -15 -23 -31 -42 -36 -42 -11 0 -10 -1027 1 -1032 4 -1
38 -64 74 -140 36 -75 80 -152 96 -171 17 -19 31 -39 31 -45 0 -6 15 -23 33
-39 18 -15 50 -54 72 -86 21 -31 55 -69 74 -84 20 -15 61 -48 91 -74 60 -51
94 -70 167 -95 26 -9 60 -27 75 -39 56 -47 326 -46 527 2 36 8 101 15 145 15
57 1 92 6 117 19 31 16 48 17 125 9 157 -16 170 -21 179 -76 18 -101 18 -107
1 -116 -10 -6 -16 -22 -16 -49 0 -21 -6 -48 -12 -59 -11 -17 -10 -22 9 -35 13
-9 25 -31 28 -53 3 -20 10 -45 16 -54 5 -10 9 -23 9 -29 0 -7 7 -17 16 -23 13
-10 13 -16 4 -38 -9 -19 -9 -31 -1 -47 12 -22 7 -41 -10 -41 -6 0 -16 15 -24
33 -7 17 -16 35 -20 39 -10 10 -35 -2 -35 -18 0 -7 -9 -19 -19 -26 -17 -12
-18 -17 -7 -39 10 -19 19 -23 44 -21 31 2 45 -12 20 -21 -7 -2 -14 -21 -15
-43 -2 -58 -14 -104 -26 -104 -6 0 -19 8 -30 17 -18 17 -19 17 -28 0 -14 -25
-62 -67 -76 -67 -24 0 -63 23 -68 41 -8 23 -52 55 -88 64 -15 4 -27 11 -27 16
0 15 -35 28 -51 19 -11 -8 -8 -15 19 -39 17 -16 32 -37 32 -45 0 -9 25 -42 55
-73 30 -32 55 -64 55 -70 0 -18 -77 -66 -95 -59 -8 3 -15 12 -15 20 0 21 -91
81 -100 65 -11 -16 17 -80 43 -101 21 -16 21 -18 5 -34 -15 -15 -21 -16 -45
-5 -15 7 -33 21 -41 32 -17 24 -28 24 -35 -1 -9 -36 -107 -17 -107 22 0 26
-21 22 -46 -9 -19 -24 -25 -26 -45 -16 -55 28 -104 43 -136 43 -27 0 -42 8
-73 42 -22 24 -40 48 -40 54 0 5 12 34 27 63 26 53 26 54 8 88 -10 18 -33 42
-50 53 -17 11 -40 28 -50 40 -28 31 -35 25 -35 -30 0 -52 37 -159 67 -192 9
-10 17 -38 19 -63 1 -24 5 -53 9 -64 6 -19 -3 -32 -72 -108 -18 -20 -33 -43
-33 -52 0 -22 115 -128 148 -136 15 -3 41 -23 58 -43 19 -21 41 -37 55 -37 13
-1 34 -7 47 -14 12 -7 31 -10 41 -6 11 3 24 -1 32 -11 7 -9 23 -20 35 -24 12
-5 24 -21 28 -37 3 -16 23 -41 45 -59 35 -27 61 -35 233 -68 106 -21 281 -55
388 -76 224 -44 576 -112 730 -141 58 -11 148 -29 200 -40 94 -19 96 -19 149
1 29 10 74 35 99 55 25 19 51 35 59 35 7 0 13 4 13 9 0 5 19 33 43 63 52 64
64 92 73 160 4 29 18 71 30 93 13 22 32 58 43 80 12 22 25 47 30 55 32 52 54
112 56 155 5 88 17 149 41 204 13 29 24 59 24 65 0 6 12 34 25 61 14 28 25 57
25 66 0 8 6 24 14 35 8 10 12 29 10 40 -4 13 1 27 11 35 37 30 84 84 88 101 7
25 -4 29 -73 31 -33 1 -60 5 -60 8 0 3 -11 11 -25 17 -24 11 -35 42 -16 42 21
0 61 48 61 74 0 20 8 32 30 44 29 16 30 20 25 63 -8 60 4 70 78 62 44 -5 57
-10 57 -23 0 -9 11 -27 25 -40 14 -13 25 -31 25 -40 0 -8 7 -26 16 -38 14 -21
18 -22 33 -8 9 9 26 13 37 10 16 -4 23 0 27 15 3 13 13 21 26 21 23 0 20 21
-7 53 -14 16 -13 17 10 17 38 0 72 -32 74 -70 1 -25 -5 -39 -31 -61 -23 -21
-31 -35 -28 -52 3 -16 -6 -33 -32 -60 -21 -21 -35 -40 -33 -42 2 -3 29 10 59
28 42 25 55 38 57 60 4 37 44 61 104 63 27 1 59 9 71 17 13 8 54 18 93 22 38
4 84 14 102 22 26 12 35 13 47 3 11 -9 34 -11 76 -6 60 6 106 -6 148 -38 26
-20 213 -23 355 -6 54 7 102 8 107 3 9 -9 -10 -72 -29 -95 -20 -25 -40 -92
-47 -160 -8 -77 12 -135 70 -199 19 -21 44 -57 57 -79 13 -23 31 -56 40 -73
18 -32 53 -53 144 -88 42 -16 57 -17 76 -8 20 8 32 8 54 -4 17 -8 37 -12 49
-7 11 3 52 4 90 0 78 -7 276 20 333 45 18 8 50 15 72 15 21 0 42 4 45 10 3 5
15 10 25 10 10 0 25 7 34 15 8 8 27 15 43 16 15 0 42 9 58 19 86 55 187 96
205 85 19 -12 165 17 210 41 25 13 49 24 53 24 4 0 40 33 80 73 108 111 223
197 263 197 6 0 36 28 68 62 l57 62 22 -22 c70 -68 97 -92 106 -92 5 0 18 -14
28 -30 16 -28 117 -101 159 -116 11 -4 28 -15 39 -24 25 -22 99 -37 145 -30
29 4 38 13 62 59 16 30 33 75 39 100 6 25 17 59 26 74 8 16 13 40 10 55 -7 36
21 133 43 152 33 27 90 124 90 152 0 15 4 29 9 32 4 3 13 31 19 63 7 32 19 94
27 138 9 44 18 123 21 175 3 52 11 112 19 133 8 20 15 47 15 60 0 27 -66 101
-82 91 -7 -4 -8 -3 -4 4 11 19 -3 35 -19 22 -12 -10 -13 -8 -10 10 4 18 2 20
-11 9 -12 -10 -13 -9 -8 6 5 13 4 16 -4 11 -7 -4 -12 -3 -12 2 0 6 7 12 15 16
8 3 15 0 15 -7 0 -8 2 -9 8 -1 4 6 15 10 24 9 39 -6 25 57 -21 99 -12 11 -21
30 -21 42 0 13 -9 41 -21 63 -14 27 -18 48 -13 63 4 13 6 63 6 112 -1 80 1 93
28 145 17 31 30 70 30 88 0 17 5 44 10 59 13 33 16 234 6 324 -12 99 -14 111
-37 170 -40 102 -59 163 -59 185 0 11 -7 30 -15 41 -8 11 -14 41 -15 72 0 29
-4 60 -9 70 -14 27 -31 87 -31 108 0 10 -9 33 -20 49 -11 17 -20 39 -20 49 0
17 -10 37 -72 141 -10 17 -30 55 -44 85 -27 59 -88 155 -104 165 -5 3 -14 23
-20 44 -5 21 -24 56 -41 77 -25 32 -29 44 -24 72 5 25 -1 48 -26 97 -28 57
-30 67 -19 99 9 27 8 40 -1 58 -24 45 -53 78 -68 78 -9 0 -53 31 -98 70 -58
49 -99 95 -140 158 -67 102 -146 177 -202 192 -50 13 -58 24 -64 85 -3 28 -10
70 -15 95 -11 56 -100 212 -171 303 -54 69 -141 196 -141 207 0 13 -207 210
-221 210 -5 0 -79 34 -164 75 -85 41 -163 75 -174 75 -11 0 -30 4 -43 9 -13 6
-61 22 -108 36 -102 31 -210 75 -210 85 0 4 -26 11 -57 15 -32 4 -63 11 -69
16 -21 17 -129 52 -164 53 -19 0 -46 9 -60 19 -13 9 -28 17 -33 17 -5 0 -39
14 -75 31 -104 48 -269 88 -392 94 -30 2 -73 9 -95 15 -65 19 -123 27 -137 19
-7 -3 -35 0 -63 7 -112 31 -194 46 -270 50 -44 2 -116 5 -160 7 -44 2 -105 1
-135 -3z m-88 -192 c-12 -12 -35 -1 -27 12 3 5 13 6 21 3 10 -4 12 -9 6 -15z
m373 -98 c-3 -5 -10 -10 -16 -10 -5 0 -9 5 -9 10 0 6 7 10 16 10 8 0 12 -4 9
-10z m-460 -20 c0 -8 -8 -15 -17 -15 -9 0 -20 -4 -24 -8 -15 -15 -44 -7 -44
12 0 14 8 21 28 24 42 7 57 3 57 -13z m300 -51 c-6 -18 -4 -20 15 -14 18 6 21
3 18 -12 -3 -19 -48 -32 -48 -14 0 21 -22 11 -56 -26 -32 -34 -37 -36 -45 -20
-15 26 -3 51 39 81 46 33 86 36 77 5z m1325 -73 c0 -30 -32 -64 -82 -90 -44
-22 -73 -51 -73 -74 0 -9 -8 -18 -17 -20 -22 -4 -24 24 -2 32 8 3 12 11 8 17
-4 7 -3 9 4 6 6 -4 16 10 24 35 10 34 18 44 38 46 58 6 70 12 70 36 0 12 3 26
7 29 13 14 23 6 23 -17z m-1217 -43 c6 -34 1 -43 -24 -43 -10 0 -19 -4 -19
-10 0 -5 6 -10 13 -10 22 0 38 -16 31 -33 -3 -9 -17 -17 -30 -17 -28 0 -30 -7
-8 -32 14 -14 14 -20 4 -33 -7 -8 -20 -15 -29 -15 -19 0 -71 62 -71 85 0 22
28 75 40 75 5 0 23 14 40 30 38 37 46 37 53 3z m277 7 c0 -13 -7 -20 -20 -20
-23 0 -26 10 -8 28 18 18 28 15 28 -8z m-823 -16 c3 -8 -3 -25 -14 -37 -13
-14 -23 -43 -27 -82 -8 -71 -28 -99 -45 -66 -14 26 2 96 29 126 9 11 20 32 24
48 7 30 23 36 33 11z m303 -24 c0 -5 -5 -10 -11 -10 -5 0 -7 5 -4 10 3 6 8 10
11 10 2 0 4 -4 4 -10z m596 -17 c-10 -10 -19 5 -10 18 6 11 8 11 12 0 2 -7 1
-15 -2 -18z m-215 -6 c10 -14 1 -89 -11 -101 -10 -10 -14 7 -10 52 1 18 -3 21
-22 18 -13 -3 -26 -5 -29 -5 -4 -1 -10 -13 -13 -27 -5 -20 -10 -24 -18 -16 -8
8 -7 16 3 28 7 9 18 26 24 38 7 11 17 20 23 19 7 -2 12 1 12 7 0 11 32 1 41
-13z m882 6 c4 -3 -2 -13 -14 -21 -24 -17 -37 -9 -19 13 14 16 23 19 33 8z
m-476 -36 c-20 -18 -37 -38 -37 -44 0 -7 -10 -19 -22 -27 -19 -12 -30 -13 -61
-3 -45 14 -46 40 -2 45 17 2 37 10 45 17 19 16 80 43 100 44 8 0 -2 -14 -23
-32z m-2065 -12 c4 -20 3 -23 -8 -14 -17 14 -44 -15 -71 -73 -18 -40 -21 -42
-41 -29 -20 12 31 105 71 129 37 22 43 21 49 -13z m1228 15 c0 -5 -4 -10 -10
-10 -5 0 -10 5 -10 10 0 6 5 10 10 10 6 0 10 -4 10 -10z m-40 -48 c0 -10 -13
-39 -30 -65 -16 -26 -30 -57 -30 -68 0 -11 -4 -25 -10 -32 -47 -58 -60 -77
-60 -87 0 -6 -6 -10 -12 -7 -16 5 -18 77 -2 97 6 8 14 28 18 43 4 15 18 38 32
50 14 12 34 36 45 54 22 36 49 44 49 15z m-589 -45 c-8 -8 -11 -5 -11 9 0 27
14 41 18 19 2 -9 -1 -22 -7 -28z m659 33 c0 -5 -4 -10 -10 -10 -5 0 -10 5 -10
10 0 6 5 10 10 10 6 0 10 -4 10 -10z m-1203 -90 c-2 -16 -97 -36 -123 -26 -24
9 -16 36 11 36 14 0 29 8 35 20 10 19 12 19 45 2 20 -10 34 -23 32 -32z m673
10 c19 -15 22 -22 12 -28 -19 -13 -61 -2 -72 18 -18 35 20 41 60 10z m780 3
c-1 -18 -18 -35 -24 -24 -4 6 -4 16 -1 21 7 12 25 13 25 3z m-85 -79 c-28 -21
-39 -2 -24 41 l14 36 15 -31 c13 -30 13 -33 -5 -46z m810 46 c15 -15 16 -23 8
-31 -9 -9 -16 -9 -28 1 -8 7 -30 16 -48 19 -20 4 -33 14 -35 25 -4 17 1 18 39
12 24 -4 53 -16 64 -26z m793 19 c-2 -6 -8 -10 -13 -10 -5 0 -11 4 -13 10 -2
6 4 11 13 11 9 0 15 -5 13 -11z m-2573 -28 c7 -13 -33 -34 -51 -27 -21 8 -5
36 21 36 13 0 26 -4 30 -9z m-1079 -22 c14 -15 16 -24 8 -37 -15 -23 -80 -38
-99 -22 -20 16 -19 22 6 54 25 31 59 34 85 5z m1922 -73 c-20 -16 -28 -31 -28
-55 0 -23 -9 -42 -27 -60 -52 -52 -95 -112 -90 -126 3 -7 -1 -19 -9 -25 -18
-15 -19 -34 -1 -27 7 3 21 -1 32 -9 10 -8 27 -14 37 -14 25 0 85 40 127 84 42
44 66 48 58 8 -4 -17 -40 -63 -97 -120 -50 -51 -93 -92 -95 -92 -2 0 -1 9 2
20 3 11 9 20 14 20 5 0 9 5 9 10 0 22 -46 9 -62 -18 -10 -15 -23 -35 -30 -44
-17 -24 -6 -31 26 -17 14 7 29 9 32 6 10 -9 -16 -98 -38 -129 -10 -14 -18 -30
-18 -35 0 -6 -9 -18 -20 -28 -25 -23 -27 -68 -3 -63 10 2 22 12 28 23 16 32
58 85 67 85 14 0 8 -40 -7 -46 -8 -4 -15 -10 -15 -14 0 -5 -12 -27 -27 -49
-27 -41 -48 -52 -56 -28 -5 15 -37 -8 -37 -28 0 -7 -6 -18 -14 -24 -7 -6 -14
-33 -15 -64 -3 -105 -7 -133 -22 -162 -9 -16 -19 -47 -23 -68 -4 -21 -10 -45
-13 -53 -3 -8 0 -14 6 -14 6 0 14 12 17 27 8 31 21 46 46 56 11 4 17 15 15 29
-2 18 2 22 20 20 27 -4 41 17 20 32 -13 10 -14 24 -7 86 7 66 12 78 39 102 17
16 36 28 41 28 18 0 11 -46 -10 -65 -17 -15 -19 -27 -16 -69 4 -39 0 -59 -14
-84 -22 -36 -26 -77 -9 -87 5 -4 24 -1 40 5 21 9 28 17 24 30 -6 19 36 60 61
60 27 0 20 -51 -14 -104 -40 -62 -50 -88 -44 -122 4 -27 0 -34 -24 -45 -20
-10 -30 -23 -32 -42 -4 -36 21 -36 45 -1 13 21 22 25 46 20 17 -3 36 -1 43 5
26 21 46 -4 48 -60 1 -29 -2 -55 -6 -57 -5 -3 -8 -15 -8 -27 0 -22 1 -22 20 3
10 14 24 45 30 70 6 25 24 60 40 77 16 17 35 46 44 66 8 19 26 43 40 52 14 10
26 25 26 35 0 10 7 23 15 30 8 7 19 26 23 43 4 17 14 33 22 35 9 3 11 -1 7
-11 -11 -28 13 -30 52 -3 38 27 93 39 60 13 -9 -7 -18 -24 -21 -39 -5 -28 5
-38 18 -17 10 16 93 51 104 44 7 -4 6 -13 -1 -26 -17 -33 1 -37 24 -5 12 15
39 47 61 70 21 22 43 54 49 69 9 26 13 28 42 23 27 -5 38 -1 71 29 34 30 36
35 18 35 -12 0 -27 7 -34 16 -10 11 -23 14 -50 9 -29 -5 -39 -3 -43 9 -11 27
-35 18 -54 -21 -24 -50 -50 -55 -51 -11 0 18 5 36 11 41 8 5 5 7 -7 5 -10 -2
-21 3 -23 10 -4 9 3 12 24 9 15 -2 39 1 53 8 14 7 42 13 63 13 21 0 44 5 52
12 8 7 24 10 35 7 13 -3 20 0 20 9 0 8 11 19 24 24 13 5 27 14 31 19 12 20 26
12 15 -8 -5 -11 -7 -26 -4 -35 3 -9 -3 -19 -15 -26 -23 -12 -25 -18 -11 -40 8
-13 13 -12 32 8 33 32 99 82 110 82 5 0 26 14 47 30 62 51 139 61 128 18 -6
-22 35 -53 58 -44 21 8 19 33 -5 46 -11 6 -18 15 -15 19 12 20 125 78 161 83
21 4 47 9 57 13 13 6 17 2 17 -18 0 -15 9 -32 22 -41 18 -13 19 -17 8 -33 -26
-33 -55 -53 -80 -53 -30 0 -54 14 -56 32 0 7 -2 19 -2 26 -3 18 -69 15 -76 -4
-9 -22 0 -31 35 -39 35 -8 47 -30 31 -56 -7 -10 -12 -25 -12 -33 0 -8 -10 -22
-21 -30 -29 -20 -18 -46 20 -46 16 0 31 -6 34 -12 3 -10 7 -10 20 1 9 7 15 17
12 21 -7 12 32 56 41 47 5 -4 3 -17 -4 -27 -16 -27 -15 -47 3 -54 26 -10 17
-21 -35 -43 l-50 -21 -11 20 -11 21 -17 -21 c-9 -11 -27 -26 -41 -32 -14 -6
-40 -22 -59 -35 -19 -14 -44 -25 -57 -25 -13 0 -26 -5 -29 -10 -4 -6 -22 -17
-42 -25 -31 -13 -38 -13 -64 0 -39 21 -75 5 -59 -26 9 -16 14 -17 31 -8 11 6
27 8 35 5 19 -7 7 -34 -19 -42 -12 -3 -30 -13 -39 -21 -24 -21 -46 -10 -50 24
-2 23 -7 28 -28 25 -13 -1 -28 -9 -33 -17 -4 -8 -14 -15 -21 -15 -8 0 -19 -7
-26 -15 -7 -8 -22 -15 -35 -15 -14 0 -26 -9 -33 -25 -6 -14 -19 -25 -27 -25
-11 0 -14 -6 -9 -25 4 -18 1 -27 -10 -31 -18 -7 -22 -34 -6 -34 6 0 13 7 16
15 3 8 16 17 27 21 42 13 77 45 77 70 0 13 5 24 12 24 6 0 20 7 30 17 13 11
24 14 38 7 18 -8 16 -13 -30 -61 -28 -29 -50 -59 -50 -66 0 -7 -16 -29 -36
-48 -37 -35 -101 -155 -90 -167 4 -3 15 -1 24 6 9 7 32 19 49 27 24 11 32 21
30 36 -2 25 11 33 33 19 13 -8 11 -14 -12 -35 -16 -14 -28 -31 -28 -38 0 -7
-16 -25 -35 -40 -22 -17 -35 -37 -35 -51 0 -23 -15 -41 -62 -77 -16 -11 -28
-29 -28 -39 0 -10 -9 -39 -19 -64 -22 -49 -60 -76 -111 -76 -49 0 -137 -63
-165 -118 -28 -57 -13 -69 23 -18 18 25 37 46 43 46 13 0 12 -7 -15 -60 -22
-44 -24 -58 -21 -167 1 -65 6 -127 11 -138 7 -18 6 -19 -10 -6 -26 22 -38 50
-50 116 -11 57 -12 60 -41 60 -32 0 -42 -19 -44 -87 -1 -48 -14 -54 -43 -21
-27 33 -63 42 -48 13 6 -11 10 -31 10 -45 0 -25 2 -26 38 -20 l39 6 25 -58
c14 -32 24 -60 21 -63 -2 -3 -8 2 -13 10 -25 43 -39 55 -51 43 -16 -16 -44 -1
-62 34 l-14 26 -7 -27 c-9 -35 -24 -29 -53 20 -27 47 -29 69 -6 60 10 -4 24 2
36 14 10 12 17 22 16 24 -62 41 -84 46 -76 15 7 -26 -12 -33 -44 -17 -36 19
-98 78 -112 107 -19 39 -37 38 -37 -3 0 -19 4 -37 10 -41 5 -3 6 -13 3 -21 -5
-12 -11 -10 -34 12 -38 37 -58 21 -34 -25 9 -17 13 -36 9 -42 -9 -15 -75 52
-138 141 -29 41 -63 84 -75 94 -12 11 -21 31 -21 47 0 15 -9 48 -20 74 -11 26
-20 55 -20 64 0 10 -13 30 -30 44 -16 15 -30 33 -30 40 -1 6 -7 -1 -14 -18 -7
-16 -11 -36 -8 -44 9 -23 -33 4 -54 36 -13 20 -18 42 -15 80 4 65 -7 84 -64
114 -30 16 -48 32 -52 49 -3 14 -13 39 -21 55 -16 30 -26 105 -14 105 3 0 16
-10 28 -21 l23 -22 7 27 c9 37 -4 77 -26 83 -16 4 -18 11 -13 32 17 71 86 169
108 151 16 -13 8 -111 -11 -126 -18 -15 -18 -20 8 -73 12 -24 23 -58 24 -75
10 -133 19 -167 78 -295 11 -24 11 -24 14 -3 5 30 20 28 35 -5 15 -36 29 -45
44 -30 10 10 7 27 -17 82 -16 39 -30 85 -30 103 0 18 -5 32 -12 32 -6 0 -1 11
12 24 29 32 21 56 -20 56 -16 0 -30 2 -30 4 0 2 -3 12 -7 21 -5 15 -3 16 15 6
20 -11 22 -9 22 13 0 16 -9 32 -24 41 -21 14 -42 64 -37 89 1 5 -3 22 -10 38
-9 22 -9 32 -1 40 9 9 16 2 27 -25 14 -34 17 -36 40 -25 16 7 29 24 35 47 5
20 19 42 30 49 21 13 21 12 20 152 -1 55 6 96 24 153 15 43 26 83 26 90 0 7 9
31 21 52 11 22 22 49 22 60 1 11 11 21 21 23 16 3 18 0 12 -19 -7 -24 -9 -37
-22 -113 -9 -56 13 -43 36 21 12 34 16 66 13 93 -5 33 -2 45 16 64 13 14 19
29 15 39 -10 26 -38 20 -57 -13 -23 -37 -33 -38 -51 -1 -13 25 -20 28 -53 26
-21 -2 -46 -6 -55 -10 -13 -5 -18 -2 -18 11 0 11 -3 29 -6 41 -6 21 -4 22 32
16 22 -3 44 -10 50 -14 12 -10 33 10 53 49 16 31 31 28 31 -7 0 -58 29 -43 63
31 10 23 13 40 6 43 -11 7 -3 25 12 25 5 0 9 -6 9 -14 0 -8 4 -26 10 -40 9
-25 10 -25 44 -11 32 13 34 13 39 -5 3 -12 14 -20 26 -20 16 0 21 -6 21 -25 0
-28 17 -34 27 -9 6 18 -8 48 -23 50 -24 2 -46 19 -61 47 -14 28 -14 32 1 42 9
7 16 18 16 24 0 21 60 141 70 141 6 0 29 17 51 38 61 54 89 64 114 40 20 -19
20 -19 -7 -42z m370 15 c1 -45 -2 -50 -38 -74 -22 -14 -42 -22 -44 -18 -7 11
50 128 66 134 7 3 14 6 15 6 0 1 1 -21 1 -48z m372 20 c0 -6 -4 -13 -10 -16
-5 -3 -10 1 -10 9 0 9 5 16 10 16 6 0 10 -4 10 -9z m-1388 -34 c25 -31 22 -47
-7 -47 -15 0 -38 -6 -53 -14 -38 -19 -90 -27 -97 -16 -3 6 1 10 9 10 8 0 24
14 36 30 12 17 17 30 12 30 -6 0 -12 -6 -15 -14 -5 -12 -13 -12 -44 -3 -48 14
-48 14 -33 31 9 11 23 14 55 9 27 -3 45 -1 50 6 10 18 67 3 87 -22z m1278 23
c0 -5 -5 -10 -11 -10 -5 0 -7 5 -4 10 3 6 8 10 11 10 2 0 4 -4 4 -10z m-1532
-11 c-2 -6 -8 -10 -13 -10 -5 0 -11 4 -13 10 -2 6 4 11 13 11 9 0 15 -5 13
-11z m-510 -32 c2 -10 -4 -20 -13 -23 -21 -8 -25 -3 -18 24 6 25 26 24 31 -1z
m1528 -9 c-19 -67 -19 -76 3 -83 12 -3 19 -11 15 -16 -8 -14 -112 -59 -135
-59 -12 0 -19 -9 -21 -27 -2 -22 -8 -28 -25 -26 -18 2 -23 -2 -23 -22 0 -19
-5 -25 -22 -25 -67 1 -53 46 25 86 31 16 47 31 47 44 0 12 17 28 51 47 44 25
50 31 45 54 -5 28 9 49 32 49 10 0 12 -7 8 -22z m904 -18 c0 -21 -37 -9 -48
15 l-12 25 30 -15 c17 -9 30 -20 30 -25z m-800 -9 c0 -20 -17 -37 -27 -28 -7
8 7 47 18 47 5 0 9 -9 9 -19z m480 -30 c14 -27 13 -30 -9 -24 -10 3 -22 0 -26
-7 -8 -13 22 -50 41 -50 8 0 21 -11 29 -24 28 -42 -13 -89 -45 -52 -13 16 -40
10 -53 -11 -5 -7 -12 -11 -18 -8 -14 10 -11 35 6 35 11 0 13 14 10 72 -2 39
-2 75 1 80 10 16 53 8 64 -11z m877 5 c-2 -6 -22 -11 -44 -11 -27 -1 -39 3
-36 11 5 15 85 15 80 0z m-139 -17 c-2 -5 -19 -20 -38 -32 l-35 -22 30 32 c30
32 50 42 43 22z m-1171 -35 c-3 -3 -12 -4 -19 -1 -8 3 -5 6 6 6 11 1 17 -2 13
-5z m773 2 c0 -2 -7 -7 -16 -10 -8 -3 -12 -2 -9 4 6 10 25 14 25 6z m-605 -43
c-11 -59 -40 -67 -46 -13 -4 33 7 50 33 50 18 0 19 -4 13 -37z m415 -9 c0 -8
-7 -17 -16 -21 -21 -8 -59 30 -51 52 6 14 9 14 37 0 16 -8 30 -22 30 -31z
m-3216 10 c10 -4 16 -18 16 -38 0 -18 5 -37 12 -44 9 -9 5 -19 -17 -42 -35
-37 -57 -38 -80 -3 -16 25 -17 27 -1 39 9 6 26 10 37 7 21 -6 21 1 2 70 -5 18
5 21 31 11z m3347 -27 c-8 -8 -11 -7 -11 4 0 20 13 34 18 19 3 -7 -1 -17 -7
-23z m776 7 c3 -8 1 -20 -6 -27 -8 -8 -15 -6 -26 9 -20 26 -19 34 5 34 11 0
23 -7 27 -16z m-87 -8 c0 -3 -4 -8 -10 -11 -5 -3 -10 -1 -10 4 0 6 5 11 10 11
6 0 10 -2 10 -4z m386 -11 c10 -8 15 -15 9 -14 -19 3 -75 -14 -75 -22 0 -5 -5
-9 -11 -9 -5 0 -7 5 -3 12 4 6 3 8 -4 5 -15 -10 -42 3 -42 20 0 10 6 13 15 9
8 -3 22 -9 30 -12 10 -4 15 0 15 10 0 21 40 21 66 1z m-3156 -15 c0 -5 -4 -10
-10 -10 -5 0 -10 5 -10 10 0 6 5 10 10 10 6 0 10 -4 10 -10z m3412 -32 c-9 -9
-12 -7 -12 12 0 19 3 21 12 12 9 -9 9 -15 0 -24z m-50 1 c30 -15 37 -23 28
-29 -8 -5 -22 -3 -34 6 -11 8 -31 14 -43 14 -23 0 -30 10 -16 23 10 11 21 8
65 -14z m-117 1 c3 -5 -3 -10 -14 -10 -12 0 -21 5 -21 10 0 6 6 10 14 10 8 0
18 -4 21 -10z m-3432 -33 c-3 -5 -9 -3 -14 4 -4 7 -5 17 -2 22 3 5 9 3 14 -4
4 -7 5 -17 2 -22z m3664 -17 c-1 -8 -11 -15 -22 -15 -15 0 -21 8 -23 34 l-3
33 25 -18 c14 -11 25 -26 23 -34z m-2073 32 c3 -5 -21 -30 -52 -56 -31 -27
-59 -58 -62 -70 -4 -15 -15 -22 -38 -24 -19 -2 -32 -9 -32 -17 0 -21 -17 -27
-40 -15 -15 8 -27 7 -51 -5 -42 -22 -48 -11 -13 26 21 22 35 28 51 24 17 -4
27 1 40 22 9 16 18 30 20 32 2 2 12 -4 22 -13 25 -22 43 -12 35 18 -6 25 2 35
51 66 32 20 61 25 69 12z m-1676 -23 c5 29 18 26 29 -6 12 -33 7 -53 -13 -53
-9 0 -13 4 -9 9 3 5 1 12 -4 16 -13 8 -6 -28 14 -67 8 -17 15 -37 15 -45 0
-22 -27 -15 -49 13 -24 30 -27 54 -9 72 9 9 8 16 -5 30 -9 10 -17 26 -17 36 0
15 3 14 23 -4 l22 -21 3 20z m2817 0 c4 -5 -7 -15 -24 -22 -28 -10 -31 -14
-25 -44 6 -30 4 -33 -20 -33 -19 0 -26 5 -26 20 0 15 -7 20 -27 20 -25 0 -26
0 -8 20 10 11 28 20 40 20 13 0 28 7 35 15 14 17 46 20 55 4z m-2625 -43 c0
-44 -15 -54 -39 -24 -22 27 -12 58 19 58 16 0 20 -7 20 -34z m2106 -4 c-15
-15 -16 -15 -16 5 0 12 6 23 13 26 19 6 21 -13 3 -31z m174 17 c0 -6 -17 -29
-39 -50 -29 -29 -47 -39 -71 -39 -41 0 -38 28 5 50 17 8 41 23 55 33 28 19 50
22 50 6z m-1822 -20 c2 -12 -6 -18 -27 -21 -16 -2 -29 -2 -27 1 2 3 6 14 9 24
8 22 40 19 45 -4z m2257 11 c-3 -5 -10 -10 -16 -10 -5 0 -9 5 -9 10 0 6 7 10
16 10 8 0 12 -4 9 -10z m745 -23 c0 -19 -1 -19 -20 -2 -21 19 -18 37 5 28 8
-3 15 -14 15 -26z m-4365 2 c8 -23 1 -34 -14 -24 -13 8 -15 45 -2 45 5 0 13
-9 16 -21z m3810 -24 c0 -23 -7 -33 -30 -44 -16 -7 -39 -21 -50 -31 -11 -9
-34 -22 -51 -29 -27 -11 -35 -10 -52 4 -22 20 -19 52 7 59 9 2 33 7 54 11 24
4 48 17 64 36 33 37 58 35 58 -6z m-225 22 c0 -2 -9 -21 -19 -43 l-20 -39 4
40 c1 22 3 41 4 43 1 3 31 3 31 -1z m1135 -17 c23 -26 4 -26 -26 0 -18 15 -20
19 -8 20 9 0 24 -9 34 -20z m-5245 -27 c-1 -31 -48 -44 -57 -16 -4 10 5 14 50
22 4 0 7 -2 7 -6z m1068 -23 c28 -38 28 -50 -3 -50 -20 0 -25 5 -25 25 0 14
-4 25 -9 25 -5 0 -11 7 -15 15 -10 27 29 16 52 -15z m837 10 c21 -23 12 -39
-13 -24 -19 12 -29 44 -14 44 5 0 17 -9 27 -20z m2042 6 c-3 -8 1 -20 9 -26 8
-7 14 -21 14 -31 0 -15 -8 -19 -39 -19 -22 0 -43 5 -46 10 -12 19 -34 10 -70
-28 -21 -23 -53 -44 -78 -52 -23 -8 -46 -17 -51 -22 -15 -12 -46 -10 -46 5 0
6 -3 22 -6 35 -4 14 -2 22 6 22 6 0 32 18 57 40 50 44 61 48 69 25 8 -20 34
-19 64 2 67 48 128 67 117 39z m980 -3 c6 -16 -30 -34 -47 -23 -11 7 -12 11 0
25 15 18 41 17 47 -2z m-1257 -20 c0 -15 -75 -83 -92 -83 -28 0 -21 28 10 44
16 8 34 22 41 30 14 16 41 22 41 9z m1330 -58 c0 -35 -5 -40 -34 -29 -19 7
-21 35 -4 52 23 23 38 13 38 -23z m-5052 -2 c-4 -22 -22 -20 -26 1 -2 10 3 16
13 16 10 0 15 -7 13 -17z m4582 7 c13 -8 13 -10 -2 -10 -9 0 -20 5 -23 10 -8
13 5 13 25 0z m579 -29 c9 -16 5 -20 -29 -34 -36 -14 -40 -14 -56 4 -16 17
-13 24 9 20 4 -1 18 5 30 14 28 19 34 19 46 -4z m274 -36 c12 -25 13 -35 4
-35 -11 0 -37 43 -37 62 0 20 18 5 33 -27z m77 14 c0 -5 -4 -9 -10 -9 -5 0
-10 7 -10 16 0 8 5 12 10 9 6 -3 10 -10 10 -16z m-2875 -9 c0 -15 -31 -37 -40
-28 -4 3 -1 16 5 28 12 22 35 23 35 0z m1516 -53 c-4 -4 -14 -1 -21 8 -11 13
-11 20 0 43 l13 27 8 -35 c4 -19 4 -39 0 -43z m1029 32 c0 -6 -4 -7 -10 -4 -5
3 -10 11 -10 16 0 6 5 7 10 4 6 -3 10 -11 10 -16z m-5222 -2 c17 -20 0 -36
-43 -43 -22 -3 -44 -10 -49 -15 -6 -5 -16 -9 -24 -9 -9 0 -4 11 13 33 39 46
82 60 103 34z m976 -16 c20 -21 26 -35 22 -56 -8 -44 -21 -49 -50 -20 -28 28
-42 66 -32 90 8 23 29 18 60 -14z m2022 -8 c-10 -10 -19 5 -10 18 6 11 8 11
12 0 2 -7 1 -15 -2 -18z m-2226 -3 c0 -5 -5 -10 -11 -10 -5 0 -7 5 -4 10 3 6
8 10 11 10 2 0 4 -4 4 -10z m4532 -20 c9 -23 8 -23 -12 -5 -22 20 -27 39 -8
33 6 -2 15 -15 20 -28z m-2252 11 c0 -20 -13 -41 -25 -41 -15 0 -28 27 -19 41
7 12 44 12 44 0z m1428 -23 c-4 -27 -28 -36 -28 -10 0 20 8 32 22 32 5 0 8
-10 6 -22z m-865 -19 c-21 -22 -43 -19 -43 6 0 7 12 15 28 17 37 5 39 1 15
-23z m555 -16 c-2 -9 -8 -18 -15 -20 -7 -3 -9 3 -6 16 6 25 26 28 21 4z
m-3248 -13 c16 -30 2 -45 -21 -24 -10 9 -19 23 -19 31 0 20 28 16 40 -7z
m2175 -41 c24 -7 34 -14 25 -17 -8 -3 -27 -13 -42 -23 -35 -25 -46 -24 -54 5
-11 46 4 53 71 35z m988 -9 c3 -11 1 -20 -4 -20 -5 0 -9 2 -9 4 0 2 -3 11 -6
20 -3 9 -2 16 4 16 5 0 12 -9 15 -20z m-3237 -48 c17 -41 17 -42 3 -42 -23 0
-65 72 -53 91 9 15 33 -9 50 -49z m3793 47 c41 -15 41 -33 -1 -24 -40 9 -48
13 -48 26 0 12 10 11 49 -2z m-239 -18 c0 -11 -25 -21 -53 -21 -22 1 -22 1 -3
15 22 17 56 20 56 6z m500 -5 c0 -3 -4 -8 -10 -11 -5 -3 -10 -1 -10 4 0 6 5
11 10 11 6 0 10 -2 10 -4z m620 -6 c0 -5 -4 -10 -9 -10 -6 0 -13 5 -16 10 -3
6 1 10 9 10 9 0 16 -4 16 -10z m-1236 -28 c8 -14 -44 -72 -59 -65 -20 7 -19
32 2 55 17 19 48 24 57 10z m-1774 -22 c0 -5 -2 -10 -4 -10 -3 0 -8 5 -11 10
-3 6 -1 10 4 10 6 0 11 -4 11 -10z m1660 -39 c0 -12 -20 -25 -27 -18 -7 7 6
27 18 27 5 0 9 -4 9 -9z m-2691 -32 c15 -45 14 -79 -4 -79 -17 0 -38 70 -29
94 9 25 21 19 33 -15z m484 -55 c3 -4 2 -16 -4 -26 -13 -24 -35 -9 -26 16 7
17 19 21 30 10z m2172 -24 c3 -5 1 -10 -4 -10 -6 0 -11 5 -11 10 0 6 2 10 4
10 3 0 8 -4 11 -10z m841 -5 c16 -12 16 -14 3 -15 -9 0 -22 7 -29 15 -16 19 0
19 26 0z m-3459 -75 c1 -61 -4 -69 -25 -48 -13 13 -17 90 -5 101 20 20 30 3
30 -53z m-161 16 c-5 -26 -2 -40 16 -62 24 -30 48 -70 48 -79 0 -10 -35 -4
-50 8 -16 13 -60 95 -60 112 0 16 30 55 42 55 6 0 8 -13 4 -34z m3254 4 c0 -5
-4 -10 -9 -10 -6 0 -13 5 -16 10 -3 6 1 10 9 10 9 0 16 -4 16 -10z m-3493 -45
c2 -69 -43 -92 -65 -32 -22 60 -17 74 26 73 36 -1 37 -2 39 -41z m3139 9 c-3
-8 -10 -12 -16 -9 -7 4 -6 14 2 28 12 24 24 8 14 -19z m275 -1 c13 -15 16 -22
7 -15 -9 7 -22 12 -30 11 -27 -3 -38 1 -38 16 0 24 35 17 61 -12z m-2886 1
c11 -12 14 -26 9 -51 -5 -26 -2 -41 13 -62 20 -26 30 -50 38 -88 2 -10 11 -31
20 -48 l16 -30 -7 37 c-3 20 -3 42 1 48 13 21 53 -29 65 -81 7 -27 16 -51 20
-54 5 -3 11 -23 15 -44 4 -22 18 -51 35 -68 21 -21 29 -42 34 -81 3 -29 8 -58
12 -64 4 -6 8 -27 10 -46 2 -21 11 -40 24 -49 14 -10 20 -23 18 -41 -4 -37
-31 -34 -42 5 -6 17 -17 34 -25 37 -9 3 -23 9 -31 14 -68 40 -79 39 -56 -6 10
-19 12 -32 5 -39 -6 -6 -5 -14 6 -23 8 -7 15 -21 15 -31 0 -10 10 -27 21 -38
13 -12 19 -26 16 -35 -10 -24 -27 -19 -27 8 0 13 -9 35 -20 49 -11 14 -20 29
-20 34 0 5 -13 35 -29 67 -34 66 -45 108 -42 154 3 35 -21 54 -42 33 -6 -6
-19 -11 -28 -11 -22 0 -40 -23 -30 -39 11 -16 -36 -64 -55 -57 -9 4 -14 21
-14 51 0 40 -4 48 -29 63 -17 9 -32 24 -34 32 -3 8 -8 23 -12 33 -6 13 -3 16
9 11 12 -4 15 -2 10 9 -3 8 -13 17 -23 20 -12 3 -21 18 -26 43 -6 33 -4 41 14
53 25 16 27 45 6 84 -14 27 -13 29 5 34 20 5 23 13 35 71 5 23 12 32 26 32 23
0 25 -25 4 -46 -34 -34 1 -134 47 -134 11 0 22 -8 25 -20 10 -37 20 -21 27 41
6 47 4 66 -8 84 -9 14 -16 31 -16 40 0 9 -7 27 -16 40 -10 16 -14 34 -10 50 7
29 18 31 41 9z m-1757 -6 c18 -18 15 -25 -17 -36 -24 -8 -32 -7 -43 5 -10 13
-9 18 7 29 23 17 37 18 53 2z m4827 2 c3 -5 -1 -10 -9 -10 -9 0 -16 5 -16 10
0 6 4 10 9 10 6 0 13 -4 16 -10z m182 -5 c26 -11 33 -19 26 -26 -15 -15 -51
-2 -63 22 -13 23 -10 23 37 4z m-3081 -12 c18 -24 17 -53 -1 -53 -18 0 -38 37
-31 56 7 19 16 18 32 -3z m3234 2 c17 -21 -11 -31 -41 -15 -17 10 -19 14 -8
21 20 13 35 11 49 -6z m-4982 -7 c-6 -18 -28 -21 -28 -4 0 9 7 16 16 16 9 0
14 -5 12 -12z m-446 -54 c-2 -10 -15 -29 -29 -42 -20 -18 -28 -20 -39 -11 -13
10 -10 17 18 46 34 35 55 38 50 7z m336 -22 c2 -7 -3 -12 -12 -12 -9 0 -16 7
-16 16 0 17 22 14 28 -4z m1842 -2 c0 -21 -15 -27 -25 -10 -7 12 2 30 16 30 5
0 9 -9 9 -20z m2555 -10 c-3 -5 -10 -10 -16 -10 -5 0 -9 5 -9 10 0 6 7 10 16
10 8 0 12 -4 9 -10z m-4479 -21 c3 -6 2 -15 -3 -20 -13 -13 -43 -1 -43 17 0
16 36 19 46 3z m1734 -46 c0 -13 -3 -13 -15 -3 -8 7 -12 16 -9 21 8 13 24 1
24 -18z m-630 -3 c0 -5 -4 -10 -10 -10 -5 0 -10 5 -10 10 0 6 5 10 10 10 6 0
10 -4 10 -10z m444 -3 c16 -11 18 -23 13 -68 -4 -30 -7 -55 -7 -56 0 -2 -6 -3
-13 -3 -21 0 -47 55 -47 99 0 33 4 41 18 41 10 0 26 -6 36 -13z m-109 -14 c8
-18 10 -31 13 -88 1 -16 13 -43 27 -59 14 -16 25 -37 25 -47 0 -29 40 -129 52
-129 7 0 9 18 5 50 -6 53 7 68 23 26 5 -13 14 -26 20 -28 8 -2 8 -15 0 -48
-18 -69 -14 -81 33 -127 34 -32 48 -56 61 -103 14 -48 15 -64 5 -76 -17 -20
-39 -17 -39 6 0 10 -9 24 -20 30 -11 6 -20 16 -20 22 0 6 -12 36 -26 65 -14
30 -23 61 -20 69 3 7 2 13 -2 13 -42 -7 -60 16 -66 83 -3 25 -12 47 -22 55
-10 7 -14 13 -10 13 5 0 1 11 -8 25 -9 13 -16 36 -16 50 0 14 -3 25 -8 25 -34
0 -96 -100 -75 -121 7 -7 7 -18 -1 -34 -10 -22 -12 -22 -38 -9 -33 17 -55 51
-32 51 7 0 14 -6 14 -12 0 -17 27 -38 39 -30 7 4 5 19 -5 43 -9 20 -18 43 -21
50 -3 6 2 12 11 12 32 0 10 118 -27 141 -11 8 -22 89 -12 89 4 0 14 -9 23 -21
20 -24 72 -33 78 -13 2 8 6 21 9 29 6 20 21 19 30 -2z m-216 -35 c11 -31 11
-31 -9 -13 -21 19 -27 45 -11 45 5 0 14 -14 20 -32z m-79 -14 c0 -8 -4 -12
-10 -9 -5 3 -10 10 -10 16 0 5 5 9 10 9 6 0 10 -7 10 -16z m4477 -17 c23 -2
46 -6 50 -10 4 -5 44 -25 89 -46 108 -51 217 -126 281 -194 95 -100 189 -269
209 -373 5 -27 15 -41 40 -56 19 -11 34 -24 34 -30 0 -5 5 -6 11 -2 6 3 8 16
5 27 -4 17 -1 16 19 -8 26 -32 30 -51 16 -74 -7 -11 -11 -5 -16 22 -6 31 -10
35 -21 26 -21 -17 -17 -37 11 -65 14 -14 25 -30 25 -37 -1 -17 -21 -42 -47
-55 -32 -17 -41 -87 -15 -115 11 -12 25 -32 31 -44 14 -27 15 -110 1 -118 -5
-3 -10 -15 -10 -25 0 -11 -12 -27 -26 -37 -41 -28 -70 -61 -91 -99 -35 -68
-48 -90 -75 -125 -25 -32 -26 -38 -17 -79 5 -25 12 -52 16 -60 11 -26 2 -121
-15 -161 -14 -34 -21 -38 -55 -41 -43 -3 -50 -12 -100 -128 -61 -139 -85 -180
-112 -190 -14 -5 -25 -16 -25 -24 0 -7 -6 -19 -14 -25 -7 -6 -16 -25 -20 -42
-3 -16 -26 -51 -51 -77 -42 -43 -49 -55 -46 -75 1 -5 -3 -6 -8 -2 -13 7 -22
-11 -56 -110 -29 -86 -47 -106 -85 -98 -28 5 -80 -11 -80 -26 0 -5 -5 -22 -12
-38 -6 -15 -12 -32 -12 -38 -1 -5 -16 -11 -33 -13 -29 -3 -33 0 -33 20 1 26
26 61 53 71 19 7 23 32 6 42 -5 4 -18 0 -28 -9 -22 -20 -41 -21 -41 -2 0 23
-35 7 -54 -25 -21 -35 -56 -39 -85 -8 -16 17 -23 19 -40 10 -22 -12 -28 -36
-11 -46 6 -4 8 -15 5 -25 -8 -27 32 -78 67 -85 37 -9 35 -17 -9 -50 -21 -16
-50 -41 -65 -57 -21 -22 -36 -28 -67 -28 -31 0 -41 4 -41 16 0 9 -9 27 -20 41
-11 14 -17 29 -14 34 3 5 -2 6 -10 3 -10 -4 -17 2 -21 19 -4 13 -20 34 -36 46
-16 12 -29 29 -29 38 0 13 10 15 60 11 81 -6 96 10 52 55 -47 49 -41 68 31 91
22 7 22 45 1 53 -9 3 -25 1 -35 -5 -24 -16 -29 -15 -29 3 0 8 -4 15 -9 15 -11
0 -53 -41 -66 -65 -10 -16 -15 -17 -64 -5 -29 7 -56 9 -61 4 -19 -22 3 -84 46
-128 l43 -45 -39 -31 c-34 -27 -40 -37 -40 -69 0 -25 7 -44 20 -56 11 -10 17
-22 14 -27 -6 -10 -87 -4 -118 8 -16 6 -22 24 -8 24 13 0 8 93 -5 97 -7 3 -21
0 -31 -6 -15 -8 -23 -7 -33 5 -19 23 17 66 61 71 44 4 58 18 42 41 -7 9 -18
29 -25 45 -14 32 -26 34 -61 6 -17 -14 -26 -30 -26 -50 0 -20 -5 -29 -16 -29
-9 0 -29 -11 -46 -25 -16 -14 -36 -25 -44 -25 -22 0 -17 -21 13 -52 23 -24 25
-30 13 -38 -23 -15 -50 -12 -50 5 0 8 -4 15 -10 15 -5 0 -10 -6 -10 -14 0 -24
-31 -27 -151 -15 -184 17 -315 16 -337 -4 -10 -10 -36 -19 -58 -22 -21 -2 -67
-8 -101 -13 -55 -7 -65 -6 -82 11 -19 20 -20 20 -53 -1 -18 -12 -39 -30 -46
-41 -7 -12 -22 -21 -33 -21 -19 0 -20 4 -14 40 9 52 -16 66 -48 27 -15 -18
-32 -27 -52 -27 -30 -1 -114 14 -118 21 -25 36 -37 64 -37 87 0 16 -9 37 -20
47 -20 18 -21 18 -53 -6 -73 -54 -205 -136 -244 -152 -175 -70 -260 -87 -413
-82 -119 4 -201 23 -321 75 -187 83 -325 209 -426 390 -17 30 -38 80 -48 110
-10 30 -22 60 -27 66 -15 20 -28 124 -29 232 -1 146 30 282 92 403 105 209
333 401 566 478 101 33 254 61 342 62 64 1 208 -19 233 -32 43 -22 53 -12 54
52 2 67 25 109 51 88 7 -6 13 -17 13 -23 0 -6 11 -24 24 -41 l24 -30 -5 28
c-3 16 -1 27 6 27 19 0 12 71 -10 106 -27 45 -22 70 14 66 21 -3 27 1 27 15 2
49 101 153 147 153 11 0 28 7 39 15 10 8 35 15 55 15 22 0 42 7 53 19 15 16
22 18 41 9 19 -8 29 -6 54 11 17 12 31 26 31 31 0 9 71 50 85 50 3 0 5 -9 5
-20 0 -23 24 -30 90 -27 40 2 45 0 48 -21 2 -13 -4 -32 -14 -43 -30 -33 -6
-34 35 -1 22 18 45 32 51 32 24 0 90 -26 90 -35 0 -29 -53 -48 -63 -22 -3 6
-6 2 -6 -10 -1 -15 -15 -32 -42 -50 -38 -25 -42 -26 -54 -10 -7 9 -16 17 -20
17 -17 0 -33 -36 -28 -66 5 -29 1 -33 -38 -56 -32 -17 -44 -30 -43 -46 1 -21
-2 -22 -50 -16 -28 4 -55 10 -61 14 -5 4 -22 10 -37 14 -22 5 -28 3 -28 -10 0
-13 -7 -16 -34 -11 -29 5 -39 0 -76 -35 -33 -32 -44 -38 -51 -27 -12 20 -11
32 6 55 8 10 15 31 15 45 0 14 9 34 20 44 29 26 25 38 -12 30 -67 -13 -68 -14
-67 -53 1 -20 -3 -50 -9 -67 -7 -16 -14 -56 -18 -88 -5 -48 -11 -63 -35 -84
-16 -15 -29 -34 -29 -43 0 -9 -7 -25 -15 -36 -8 -10 -15 -31 -15 -46 0 -23 13
-37 78 -85 94 -70 123 -102 187 -210 26 -46 54 -88 61 -94 8 -6 14 -22 14 -34
0 -27 47 -175 61 -192 6 -7 7 -18 3 -25 -10 -16 -5 -89 7 -104 7 -9 6 -21 -4
-41 -15 -29 -31 -144 -29 -199 1 -21 -6 -38 -23 -54 -40 -37 -33 -54 18 -46
57 9 174 45 217 66 19 10 71 24 115 31 44 7 87 17 95 23 50 36 125 62 135 46
3 -4 37 -7 77 -6 74 3 103 -5 126 -33 12 -14 13 -14 8 3 -9 27 19 67 42 59 9
-4 22 -14 29 -22 7 -9 13 -12 13 -7 0 5 10 -3 21 -18 15 -20 25 -24 32 -17 6
6 19 11 29 11 27 0 22 25 -13 65 l-32 36 22 23 c11 12 21 32 21 45 0 20 3 21
38 15 20 -3 49 -18 65 -32 20 -19 27 -22 27 -10 0 8 9 23 20 33 15 14 19 26
14 49 -7 41 10 84 39 95 13 5 31 20 40 34 9 14 32 30 52 37 23 8 35 18 35 30
0 10 5 22 10 25 22 14 7 35 -47 69 -169 104 -322 287 -379 453 -13 38 -23 80
-24 94 0 42 -21 89 -38 89 -14 0 -15 2 -3 9 19 12 27 207 9 228 -8 10 -8 17 0
25 7 7 12 19 12 27 -1 13 -4 12 -16 -4 -9 -13 -28 -20 -50 -21 -19 -1 -44 -10
-55 -20 -20 -18 -20 -18 -17 31 3 46 5 50 27 47 14 -1 41 8 60 21 20 12 45 27
56 33 11 6 22 20 24 30 2 10 13 31 26 46 12 14 37 56 55 92 18 36 66 102 107
148 41 46 79 94 86 107 7 13 39 38 72 56 33 18 83 46 110 64 28 17 68 37 90
43 22 6 51 19 65 29 14 9 52 20 85 24 33 4 67 11 75 16 13 7 235 4 387 -4z
m-6174 -19 c-13 -12 -25 -19 -29 -15 -10 10 16 37 34 37 13 0 12 -4 -5 -22z
m685 -10 c-6 -18 -28 -21 -28 -4 0 9 7 16 16 16 9 0 14 -5 12 -12z m1124 -34
c71 -76 75 -94 15 -69 -34 14 -77 61 -90 98 -12 34 31 18 75 -29z m2838 42 c0
-3 -4 -8 -10 -11 -5 -3 -10 -1 -10 4 0 6 5 11 10 11 6 0 10 -2 10 -4z m-3830
-51 c-16 -19 -34 -19 -49 -1 -13 16 1 31 34 38 24 4 32 -17 15 -37z m3590 37
c0 -14 -23 -32 -42 -32 -20 0 -25 26 -5 33 20 8 47 8 47 -1z m-4260 -61 c0
-24 -25 -45 -45 -37 -18 7 -20 42 -2 49 27 12 47 7 47 -12z m90 6 c0 -20 -22
-37 -47 -37 -25 0 -30 19 -11 38 16 16 58 15 58 -1z m4670 -7 c0 -5 -9 -14
-19 -19 -14 -8 -22 -7 -31 4 -10 12 -8 16 11 24 25 9 39 6 39 -9z m149 -31
c18 -40 9 -46 -28 -19 -37 25 -40 50 -8 50 15 0 26 -10 36 -31z m-4718 -22
c-13 -13 -26 -3 -16 12 3 6 11 8 17 5 6 -4 6 -10 -1 -17z m899 -76 c0 -27 -15
-34 -34 -15 -19 19 -12 34 15 34 12 0 19 -7 19 -19z m2790 -30 c0 -13 -28 -33
-41 -29 -8 3 -6 9 5 21 19 18 36 22 36 8z m149 -27 c-31 -38 -129 -76 -129
-51 0 22 34 47 82 62 48 14 65 10 47 -11z m-2224 -63 c-10 -16 -25 -3 -25 22
0 20 1 20 16 5 9 -9 13 -21 9 -27z m2723 -40 c3 -8 -1 -12 -9 -9 -7 2 -15 10
-17 17 -3 8 1 12 9 9 7 -2 15 -10 17 -17z m192 -22 c0 -20 -8 -23 -34 -13 -19
7 -21 31 -3 37 20 7 37 -4 37 -24z m-520 -4 c7 -8 28 -15 46 -15 24 0 34 -5
34 -15 0 -18 -21 -20 -38 -3 -9 9 -18 6 -39 -14 -47 -43 -136 -78 -117 -45 5
7 1 7 -10 -2 -21 -17 -112 -25 -121 -10 -10 15 15 39 41 39 13 0 27 8 32 17 9
16 110 59 143 62 9 0 22 -6 29 -14z m-335 -25 c3 -5 -1 -10 -10 -10 -9 0 -13
5 -10 10 3 6 8 10 10 10 2 0 7 -4 10 -10z m646 -10 c27 -15 24 -40 -4 -40 -30
0 -62 24 -53 38 9 15 31 15 57 2z m127 -88 c2 -14 -2 -22 -12 -22 -17 0 -39
34 -29 44 14 13 38 0 41 -22z m-412 -2 c9 0 13 -4 10 -9 -4 -5 -14 -8 -24 -6
-9 2 -20 4 -24 4 -5 1 -8 6 -8 12 0 6 7 8 16 5 9 -3 22 -6 30 -6z m-321 -20
c-4 -6 -43 -32 -87 -57 -44 -26 -92 -61 -106 -79 -20 -23 -32 -30 -46 -25 -17
7 -17 9 5 36 69 84 104 111 170 127 68 16 75 16 64 -2z m-1669 -17 c4 -16 12
-37 17 -48 6 -11 12 -25 13 -31 1 -6 5 -21 9 -33 4 -14 2 -21 -7 -21 -15 0
-79 116 -78 143 0 29 39 21 46 -10z m4604 -4 c0 -11 -4 -17 -10 -14 -5 3 -10
15 -10 26 0 11 5 17 10 14 6 -3 10 -15 10 -26z m-1992 9 c18 -18 15 -27 -9
-25 -27 2 -48 37 -21 37 10 0 23 -5 30 -12z m-185 -15 c19 -6 22 -19 6 -28
-17 -11 -79 5 -79 20 0 16 20 25 40 18 8 -3 23 -8 33 -10z m-348 -3 c-3 -5
-11 -10 -16 -10 -6 0 -7 5 -4 10 3 6 11 10 16 10 6 0 7 -4 4 -10z m443 -10 c7
-11 21 -20 32 -20 32 0 23 -18 -17 -35 -48 -20 -63 -13 -63 28 0 51 24 64 48
27z m-1166 -36 c-4 -29 -18 -54 -32 -54 -4 0 -10 15 -14 32 -5 25 -2 36 11 46
25 18 38 9 35 -24z m938 16 c4 -6 17 -12 28 -13 12 -1 22 -4 22 -8 0 -4 12 -9
27 -11 14 -2 28 -9 31 -15 6 -20 -27 -27 -46 -10 -16 15 -21 15 -47 1 -29 -15
-31 -14 -50 10 -12 14 -26 26 -33 26 -15 0 -16 17 -1 22 26 9 63 7 69 -2z
m-4445 -20 c-3 -5 -10 -10 -16 -10 -5 0 -9 5 -9 10 0 6 7 10 16 10 8 0 12 -4
9 -10z m2371 -25 c16 -64 -22 -96 -53 -44 -14 24 -14 28 1 52 20 30 43 26 52
-8z m-2093 -23 c25 -22 22 -29 -25 -51 -24 -11 -54 -28 -67 -38 l-23 -17 7 32
c5 27 4 32 -12 32 -10 0 -24 9 -30 19 -10 17 -9 20 13 25 15 4 32 2 41 -5 11
-10 18 -8 35 9 22 21 29 21 61 -6z m6510 1 c10 -19 17 -63 9 -63 -9 0 -32 44
-32 60 0 12 17 13 23 3z m-6448 -23 c3 -5 1 -10 -4 -10 -6 0 -11 5 -11 10 0 6
2 10 4 10 3 0 8 -4 11 -10z m75 -15 c7 -9 22 -12 38 -9 31 6 73 -19 57 -34 -5
-5 -44 -7 -86 -4 -72 4 -76 5 -71 26 9 36 40 47 62 21z m3140 -13 c0 -5 -9
-17 -20 -27 -20 -18 -20 -17 -20 8 0 20 5 27 20 27 11 0 20 -4 20 -8z m-1590
-35 c8 -14 11 -29 7 -33 -11 -11 -47 26 -47 48 0 26 21 18 40 -15z m209 7 c22
-28 27 -59 11 -69 -12 -8 -64 71 -55 84 10 17 22 13 44 -15z m2391 -28 c0 -8
7 -16 15 -20 16 -6 20 -33 9 -60 -4 -11 -14 -14 -28 -10 -37 9 -48 -15 -26
-63 10 -23 16 -44 13 -47 -8 -7 -76 22 -85 37 -4 6 -5 22 -1 34 4 17 1 23 -11
23 -9 0 -16 -7 -16 -15 0 -18 -45 -49 -60 -40 -16 10 -12 19 12 30 29 13 37
45 11 45 -10 0 -29 -7 -42 -16 -17 -12 -26 -13 -34 -5 -16 16 -42 14 -57 -4
-15 -18 -63 -20 -58 -2 3 6 17 13 32 15 17 2 30 12 35 25 11 29 68 70 87 63 8
-3 14 -15 14 -26 0 -43 59 -16 63 29 1 19 8 21 64 21 47 0 63 -4 63 -14z
m-4057 -63 c30 -6 36 -27 11 -37 -12 -5 -14 -9 -5 -20 11 -13 1 -14 -42 -7 -4
0 -5 12 -1 26 5 19 2 25 -10 25 -9 0 -16 -4 -16 -10 0 -5 -7 -10 -15 -10 -18
0 -18 5 -4 32 8 15 16 18 32 13 12 -4 34 -9 50 -12z m122 -25 c14 -6 25 -18
25 -26 0 -11 -8 -13 -37 -8 -21 3 -46 6 -56 6 -26 0 -16 23 14 31 13 4 25 7
26 8 1 1 14 -4 28 -11z m6081 -13 c18 -15 18 -15 -10 -13 -16 2 -31 9 -34 16
-5 17 20 15 44 -3z m-2056 -49 c0 -19 4 -22 25 -18 20 3 25 0 25 -17 0 -16 -6
-21 -24 -21 -14 0 -28 5 -31 10 -3 6 -17 10 -30 10 -34 0 -38 26 -8 49 29 24
43 20 43 -13z m-2981 -32 c21 -27 28 -64 13 -64 -15 0 -39 33 -46 63 -8 34 6
35 33 1z m1422 6 c8 -75 7 -79 -6 -74 -14 6 -46 64 -40 74 4 7 45 8 46 0z
m-2852 -46 c-6 -7 -21 -13 -33 -12 -11 1 -30 -1 -41 -5 -11 -4 -27 -2 -35 3
-27 18 11 35 69 32 43 -3 50 -6 40 -18z m3576 -4 c-3 -5 -10 -10 -16 -10 -5 0
-9 5 -9 10 0 6 7 10 16 10 8 0 12 -4 9 -10z m2980 -10 c3 -5 -1 -10 -9 -10 -9
0 -16 5 -16 10 0 6 4 10 9 10 6 0 13 -4 16 -10z m92 -26 c32 -32 26 -38 -20
-19 -40 17 -53 31 -35 38 23 9 29 7 55 -19z m-6767 -55 c0 -10 -4 -21 -10 -24
-5 -3 -10 -1 -10 4 0 19 -28 12 -35 -9 -3 -11 -12 -20 -19 -20 -8 0 -19 -7
-26 -15 -7 -8 -23 -15 -36 -15 -20 0 -24 5 -24 29 0 22 7 33 28 44 15 8 45 24
67 36 37 20 41 20 52 4 7 -9 13 -25 13 -34z m4544 -95 c3 -8 2 -12 -4 -9 -6 3
-10 10 -10 16 0 14 7 11 14 -7z m-4234 -70 c0 -7 -7 -15 -16 -18 -29 -11 -90
38 -65 53 15 10 81 -19 81 -35z m-680 22 c0 -8 -18 -28 -39 -46 -22 -17 -56
-53 -76 -80 -43 -59 -101 -98 -118 -81 -9 9 0 24 38 61 28 27 61 61 75 75 69
72 120 102 120 71z m4530 -46 c-11 -21 -31 -23 -37 -3 -2 6 4 18 13 27 23 23
40 6 24 -24z m-4492 11 c3 -8 -1 -12 -9 -9 -7 2 -15 10 -17 17 -3 8 1 12 9 9
7 -2 15 -10 17 -17z m4237 4 c0 -5 -19 -11 -42 -13 -40 -3 -53 5 -36 22 11 10
78 3 78 -9z m-3950 -65 c10 -11 37 -22 64 -25 68 -10 81 -15 81 -32 0 -15 -37
-52 -53 -53 -4 0 -35 18 -68 40 -45 31 -59 46 -59 65 0 30 11 32 35 5z m225
-20 c0 -23 -22 -27 -39 -7 -13 16 -5 27 21 27 11 0 18 -7 18 -20z m6680 -102
c0 -16 -3 -19 -11 -11 -6 6 -8 16 -5 22 11 17 16 13 16 -11z m-7217 -7 c21 -5
42 -12 45 -16 8 -7 -57 -64 -74 -65 -14 0 -56 -48 -74 -83 -7 -15 -37 -45 -67
-67 -29 -23 -53 -47 -53 -54 0 -7 -9 -25 -20 -39 -13 -17 -20 -40 -20 -70 0
-27 -5 -47 -12 -49 -10 -4 -10 -10 0 -33 l13 -28 29 29 c16 16 30 39 30 52 0
12 7 25 15 29 27 10 29 -6 6 -38 -32 -43 -22 -55 21 -22 38 28 50 63 23 63 -8
0 -15 4 -15 9 0 5 -9 7 -20 4 -21 -5 -28 11 -10 22 6 3 10 15 10 26 0 14 7 19
25 19 15 0 31 10 42 26 10 15 45 56 78 90 49 53 65 64 92 64 17 0 35 5 38 10
6 10 45 14 45 4 0 -12 -66 -84 -77 -84 -7 0 -22 -9 -34 -21 l-20 -20 31 -29
c26 -25 35 -28 52 -19 11 6 26 8 34 5 27 -10 14 -34 -27 -50 -35 -14 -40 -20
-35 -40 3 -13 0 -41 -8 -62 -7 -22 -16 -61 -21 -89 -4 -27 -14 -63 -22 -80
-16 -29 -16 -29 -26 -8 -7 16 -5 36 7 73 19 58 11 80 -30 80 -19 0 -24 5 -24
25 0 39 -21 30 -69 -30 -24 -30 -54 -61 -67 -70 -18 -11 -24 -25 -24 -50 0
-39 24 -49 35 -15 3 11 14 20 23 20 15 0 18 -11 20 -64 1 -46 -3 -67 -13 -76
-21 -18 -19 -29 10 -40 14 -5 25 -17 25 -25 0 -9 7 -23 15 -31 13 -14 13 -17
0 -30 -8 -9 -15 -27 -15 -40 0 -14 -6 -32 -14 -40 -8 -7 -16 -19 -18 -26 -4
-10 -8 -10 -21 1 -17 14 -23 41 -9 41 8 0 27 42 36 81 7 34 -13 52 -48 43 -29
-7 -35 6 -11 26 19 16 3 40 -26 40 -11 0 -28 5 -38 12 -15 9 -23 9 -35 -1 -14
-11 -13 -16 5 -40 16 -22 19 -36 14 -65 -6 -30 -10 -34 -22 -25 -10 9 -17 9
-25 1 -18 -18 -28 -14 -39 16 -19 48 -21 139 -4 172 15 29 15 31 -10 56 -30
30 -32 44 -5 37 24 -6 28 18 5 37 -11 9 -14 25 -10 59 3 25 6 55 6 66 0 11 11
43 24 72 14 28 25 64 25 79 0 14 16 48 35 74 19 26 35 53 35 60 0 19 33 70 46
70 7 0 11 -18 11 -50 -1 -60 6 -69 34 -44 13 12 19 27 16 42 -3 18 5 35 30 63
38 42 56 46 126 30z m4816 -18 c-38 -43 -59 -55 -59 -33 0 17 48 60 66 60 15
0 14 -4 -7 -27z m2371 -3 c0 -5 -5 -10 -11 -10 -5 0 -7 5 -4 10 3 6 8 10 11
10 2 0 4 -4 4 -10z m-6825 -47 c-6 -47 -16 -63 -39 -63 -13 0 -26 3 -30 7 -4
4 -16 8 -26 8 -11 0 -20 5 -19 10 0 6 11 9 23 8 13 -1 38 11 57 27 19 16 35
29 36 30 1 0 0 -12 -2 -27z m3815 6 c0 -5 -4 -9 -10 -9 -5 0 -10 7 -10 16 0 8
5 12 10 9 6 -3 10 -10 10 -16z m-3225 -8 c6 -11 -21 -41 -37 -41 -6 0 -8 -3
-5 -6 4 -4 -2 -19 -13 -34 -24 -34 -25 -49 -5 -56 8 -4 15 -12 15 -20 0 -18
-5 -18 -34 1 -22 15 -22 14 -18 -16 4 -30 3 -32 -22 -25 -24 6 -27 4 -21 -14
8 -24 -20 -39 -38 -21 -6 6 -20 11 -31 11 -16 1 -7 14 43 61 60 56 63 61 52
86 -14 30 -2 49 44 69 36 16 62 17 70 5z m-735 -60 c0 -12 -28 -41 -39 -41 -4
0 -18 -9 -31 -20 -32 -28 -48 -25 -19 3 13 13 32 33 41 45 18 22 48 30 48 13z
m801 -84 c-13 -13 -26 -3 -16 12 3 6 11 8 17 5 6 -4 6 -10 -1 -17z m579 5 c0
-10 -60 -46 -66 -39 -3 2 10 14 28 26 38 24 38 24 38 13z m-1120 -57 c0 -8 -7
-15 -15 -15 -26 0 -18 20 13 29 1 1 2 -6 2 -14z m466 -12 c-10 -10 -19 5 -10
18 6 11 8 11 12 0 2 -7 1 -15 -2 -18z m3412 -11 c6 -18 -15 -14 -22 4 -4 10
-1 14 6 12 6 -2 14 -10 16 -16z m-3978 -41 c0 -28 -17 -35 -29 -13 -11 21 -6
32 16 32 7 0 13 -9 13 -19z m-57 -70 c-2 -12 1 -41 7 -64 7 -32 6 -47 -5 -64
-8 -12 -15 -38 -15 -57 0 -41 -24 -55 -52 -29 -10 9 -31 17 -46 18 l-27 0 4
75 c3 77 10 90 49 90 14 0 26 8 32 24 15 40 57 46 53 7z m367 20 c0 -12 -20
-25 -27 -18 -7 7 6 27 18 27 5 0 9 -4 9 -9z m185 -91 c-3 -5 -10 -10 -16 -10
-5 0 -9 5 -9 10 0 6 7 10 16 10 8 0 12 -4 9 -10z m-744 -65 c0 -33 -6 -66 -14
-79 -12 -18 -13 -28 -2 -59 11 -33 10 -39 -6 -58 -11 -12 -19 -30 -19 -39 0
-22 -29 -80 -40 -80 -7 0 -5 101 4 175 2 17 14 59 26 95 45 132 51 138 51 45z
m4239 45 c0 -5 -2 -10 -4 -10 -3 0 -8 5 -11 10 -3 6 -1 10 4 10 6 0 11 -4 11
-10z m-3607 -93 c-21 -23 -56 -68 -77 -100 -21 -33 -40 -56 -43 -53 -9 9 18
68 43 96 12 14 27 37 33 52 12 31 74 75 80 57 2 -6 -14 -30 -36 -52z m477 -18
c0 -61 -15 -79 -26 -31 -4 15 -16 37 -27 50 -22 24 -17 37 18 44 31 7 35 1 35
-63z m-312 13 c-5 -28 -33 -20 -36 11 -3 26 -2 28 18 17 12 -6 20 -19 18 -28z
m-388 -7 c0 -8 -7 -15 -15 -15 -8 0 -15 7 -15 15 0 8 7 15 15 15 8 0 15 -7 15
-15z m346 -40 l29 -26 -25 -19 c-18 -13 -28 -16 -37 -8 -9 7 -18 7 -29 -3 -14
-11 -18 -10 -30 6 -17 23 -13 40 8 40 8 0 23 8 32 18 22 21 17 22 52 -8z
m-693 -6 c3 -12 10 -18 17 -14 6 4 18 1 27 -7 13 -10 17 -10 20 0 8 21 21 13
32 -18 5 -17 21 -34 35 -39 13 -6 27 -19 31 -31 3 -11 19 -27 34 -35 16 -8 31
-21 34 -30 8 -18 -2 -91 -16 -125 -15 -36 -29 -127 -29 -183 1 -38 -2 -46 -12
-38 -10 8 -18 6 -31 -9 -22 -24 -12 -39 15 -22 11 7 22 12 24 12 3 0 6 -52 5
-115 -2 -128 12 -178 57 -195 28 -11 30 -43 3 -48 -11 -2 -23 12 -37 41 -12
25 -28 47 -37 51 -28 10 -54 88 -50 152 6 86 -23 171 -59 176 -28 4 -33 34 -6
41 11 3 20 10 20 15 0 14 -34 25 -38 13 -2 -6 -10 -11 -17 -11 -8 0 -23 -14
-35 -30 -18 -25 -25 -28 -36 -19 -8 6 -14 22 -14 35 0 12 -4 25 -9 29 -5 3 -7
22 -4 43 6 34 5 36 -10 23 -11 -8 -17 -28 -17 -53 0 -25 -5 -41 -15 -44 -9 -4
-15 -19 -15 -35 0 -22 -5 -29 -20 -29 -11 0 -20 6 -20 14 0 7 -7 19 -16 26
-23 20 -14 63 19 78 15 7 27 19 27 26 0 12 24 28 63 40 21 7 24 68 3 85 -12
10 -11 17 4 49 27 57 42 139 30 163 -6 11 -8 24 -5 29 11 18 43 11 48 -11z
m1855 -6 c-4 -22 -38 -30 -38 -10 0 14 13 24 33 26 5 1 7 -7 5 -16z m-2082
-33 c8 0 14 -9 14 -21 0 -18 -2 -19 -15 -9 -12 10 -15 10 -15 -4 0 -9 5 -16
10 -16 14 0 12 -33 -4 -64 l-14 -27 -6 45 c-4 25 -11 48 -17 51 -5 4 -3 15 6
28 8 12 16 31 16 42 2 18 2 17 6 -2 2 -13 11 -23 19 -23z m1088 8 c-3 -13 -11
-28 -16 -35 -5 -7 -7 -17 -3 -23 9 -15 -13 -40 -31 -33 -28 11 -8 98 25 106
30 8 32 7 25 -15z m-584 -42 c0 -3 -4 -8 -10 -11 -5 -3 -10 -1 -10 4 0 6 5 11
10 11 6 0 10 -2 10 -4z m412 -41 c3 -27 0 -36 -14 -41 -10 -3 -18 -14 -18 -25
0 -16 3 -18 19 -10 23 13 30 6 24 -20 -4 -14 -11 -18 -22 -13 -9 4 -24 7 -34
8 -16 0 -18 6 -13 39 7 44 32 97 45 97 5 0 11 -16 13 -35z m370 -13 c43 -92
47 -163 7 -147 -20 8 -49 80 -38 96 14 23 10 59 -6 59 -27 0 -14 25 15 29 3 0
13 -16 22 -37z m-676 -9 c-11 -11 -19 6 -11 24 8 17 8 17 12 0 3 -10 2 -21 -1
-24z m574 17 c0 -5 -5 -10 -11 -10 -5 0 -7 5 -4 10 3 6 8 10 11 10 2 0 4 -4 4
-10z m-495 -59 c-8 -25 -18 -27 -35 -6 -10 12 -8 16 11 24 29 11 33 8 24 -18z
m367 14 c0 -5 -5 -11 -11 -13 -6 -2 -11 4 -11 13 0 9 5 15 11 13 6 -2 11 -8
11 -13z m122 -20 c16 -13 30 -32 31 -44 2 -32 37 -89 62 -100 13 -6 23 -16 23
-23 0 -6 12 -24 26 -39 23 -24 25 -33 19 -68 -12 -70 -67 -65 -105 9 -11 22
-24 40 -29 40 -10 0 -38 76 -52 139 -11 52 -15 59 -31 43 -15 -15 -38 -16 -38
-2 0 6 9 18 20 27 11 10 20 23 20 30 0 20 22 15 54 -12z m866 21 c0 -3 -4 -8
-10 -11 -5 -3 -10 -1 -10 4 0 6 5 11 10 11 6 0 10 -2 10 -4z m-1474 -42 c8
-29 -12 -57 -25 -36 -4 7 -18 11 -31 10 -32 -4 -38 25 -8 40 38 18 57 14 64
-14z m-576 -47 c0 -7 -13 -26 -30 -42 -23 -22 -30 -25 -30 -12 0 9 5 17 10 17
6 0 10 6 10 13 0 14 20 37 32 37 4 0 8 -6 8 -13z m908 -20 c7 -5 37 -7 70 -3
56 6 58 6 91 -29 29 -31 33 -41 29 -80 l-3 -45 47 0 48 0 0 -40 c0 -25 9 -55
23 -78 13 -20 27 -54 31 -74 6 -31 3 -39 -14 -48 -13 -7 -20 -21 -20 -40 0
-17 -4 -30 -10 -30 -5 0 -10 10 -10 23 0 13 -11 34 -25 47 l-25 23 -25 -23
c-22 -20 -25 -21 -31 -6 -3 9 -4 32 -2 51 3 23 0 35 -8 35 -6 0 -22 8 -34 18
-22 17 -24 17 -65 -3 -41 -19 -96 -70 -121 -111 -10 -15 -14 -17 -25 -6 -7 6
-21 12 -30 12 -19 0 -35 33 -24 50 3 5 0 18 -7 29 -10 16 -7 28 15 71 20 38
27 67 27 108 0 64 12 113 35 148 15 23 34 24 63 1z m-116 -39 l-22 -22 0 21
c0 12 3 29 6 38 6 15 8 15 23 1 14 -15 13 -18 -7 -38z m-1052 -3 c0 -14 -4
-25 -9 -25 -12 0 -23 29 -15 41 10 18 24 9 24 -16z m799 1 c8 -10 9 -21 3 -33
-5 -10 -7 -24 -5 -30 6 -17 -28 -93 -42 -93 -6 0 -16 27 -21 60 -9 53 -8 61 7
65 9 3 19 15 22 25 6 24 20 26 36 6z m-479 -12 c0 -8 -5 -12 -10 -9 -6 4 -8
11 -5 16 9 14 15 11 15 -7z m586 -16 c-3 -13 -6 -31 -6 -40 0 -10 -7 -18 -15
-18 -18 0 -19 20 -3 55 14 31 33 33 24 3z m74 1 c0 -5 -7 -9 -15 -9 -9 0 -12
6 -9 15 6 15 24 11 24 -6z m-790 -23 c0 -8 -5 -18 -10 -21 -6 -4 -10 -14 -9
-23 4 -31 -13 -93 -25 -89 -11 4 -14 67 -5 96 5 18 31 49 42 50 4 1 7 -5 7
-13z m1450 -25 c0 -12 -20 -25 -27 -18 -7 7 6 27 18 27 5 0 9 -4 9 -9z m-705
-47 c0 -10 -8 -20 -17 -22 -18 -3 -26 27 -11 42 12 11 28 0 28 -20z m-23 -86
c-7 -7 -12 -20 -12 -30 0 -10 -7 -18 -15 -18 -18 0 -20 31 -3 48 7 7 19 12 27
12 12 0 12 -3 3 -12z m763 -48 c-4 -12 -9 -19 -12 -17 -3 3 -2 15 2 27 4 12 9
19 12 17 3 -3 2 -15 -2 -27z m-1442 -17 c20 -23 31 -68 21 -85 -5 -7 -7 -23
-5 -35 1 -13 -3 -23 -9 -23 -17 0 -24 29 -10 45 10 12 8 22 -9 50 -32 56 -25
88 12 48z m160 -122 c10 -48 5 -60 -17 -42 -17 15 -30 66 -21 81 13 21 30 3
38 -39z m637 -19 c0 -24 -1 -24 -22 -8 -13 9 -31 19 -40 23 -11 3 -18 15 -18
30 l0 24 40 -22 c30 -17 40 -29 40 -47z m1468 56 c30 -30 5 -37 -29 -8 -23 19
-23 19 -3 20 11 0 25 -5 32 -12z m3395 -32 c15 -19 27 -37 27 -40 0 -13 -42
-26 -66 -20 -21 5 -24 11 -20 30 5 17 1 24 -14 29 -33 10 -24 35 13 35 25 0
38 -8 60 -34z m-2866 -8 c31 -29 30 -72 -3 -103 -15 -14 -32 -25 -38 -26 -6 0
-22 -3 -36 -5 -64 -12 -85 -10 -88 12 -2 17 9 28 53 53 44 25 56 37 55 54 -1
12 -2 25 -1 30 2 15 35 6 58 -15z m-1887 -76 c-1 -25 -2 -26 -15 -9 -7 11 -11
25 -8 33 8 22 23 6 23 -24z m124 10 c-1 -7 -2 -23 -2 -37 -2 -21 -7 -25 -32
-25 -36 0 -37 11 -8 51 21 28 44 34 42 11z m3766 2 c0 -8 -5 -12 -10 -9 -6 4
-8 11 -5 16 9 14 15 11 15 -7z m-4517 -50 c28 -37 15 -53 -16 -22 -15 15 -27
32 -27 38 0 18 25 10 43 -16z m2068 -26 c43 -47 61 -53 69 -23 3 11 14 21 24
23 10 2 16 0 12 -6 -3 -5 8 -16 26 -25 24 -11 37 -13 55 -4 17 8 29 7 47 -3
34 -18 101 -16 121 3 16 16 45 13 45 -5 0 -5 5 -6 12 -2 6 4 17 -1 25 -12 8
-10 16 -18 18 -16 18 9 65 -27 69 -53 1 -10 13 -26 27 -37 13 -11 19 -17 13
-14 -7 3 -15 -1 -18 -10 -4 -10 -2 -13 7 -9 6 4 3 -1 -7 -9 -11 -9 -16 -16
-11 -16 5 0 3 -6 -3 -12 -10 -10 -15 -10 -21 1 -7 11 -11 10 -19 -6 -6 -10 -8
-23 -4 -29 13 -17 60 -36 72 -29 15 9 58 -31 75 -71 11 -27 10 -41 -8 -108
-12 -41 -28 -78 -35 -81 -8 -3 -31 8 -52 25 -21 16 -47 30 -59 30 -11 0 -28 9
-38 19 -18 19 -87 43 -97 34 -3 -3 -3 -17 -1 -32 2 -14 7 -43 10 -63 4 -28 11
-38 24 -38 14 0 20 -9 23 -34 4 -33 3 -34 -19 -17 -12 9 -23 19 -23 24 -1 20
-22 3 -40 -33 -16 -31 -17 -38 -5 -34 23 9 32 -26 10 -42 -15 -11 -16 -17 -7
-26 7 -7 12 -24 12 -39 0 -19 6 -30 21 -34 26 -9 21 -41 -6 -37 -11 2 -41 3
-67 2 -40 0 -49 4 -67 29 -11 15 -45 41 -75 56 -56 28 -74 51 -56 69 17 17 11
35 -16 53 -26 17 -27 16 -48 -10 -30 -37 -37 -34 -30 11 6 37 4 40 -27 52 -27
12 -33 12 -37 1 -3 -8 -13 -22 -23 -32 -18 -18 -18 -21 -3 -44 15 -24 15 -25
-4 -25 -11 0 -25 7 -32 15 -7 8 -19 15 -27 15 -8 0 -28 14 -44 31 -42 45 -69
25 -44 -33 14 -34 -22 -19 -44 17 -20 34 -41 46 -41 24 0 -15 -67 -79 -83 -79
-7 0 -18 -9 -25 -20 -14 -23 -42 -27 -42 -6 0 8 14 19 30 25 32 11 39 31 16
50 -10 8 -13 23 -9 45 7 45 -11 53 -43 19 -18 -19 -23 -33 -19 -48 4 -11 8
-31 9 -45 1 -21 -3 -25 -27 -25 -27 0 -54 -24 -38 -35 5 -3 4 -16 0 -29 l-9
-24 -25 23 c-14 13 -25 32 -25 42 0 10 -7 21 -15 24 -8 4 -15 12 -15 18 0 7
-6 18 -12 24 -7 7 -11 28 -9 47 2 29 -1 35 -16 35 -11 0 -29 -11 -41 -25 -26
-30 -67 -33 -82 -6 -7 13 -7 22 0 26 5 3 10 23 10 44 0 65 32 134 88 188 12
12 22 28 22 36 0 7 5 18 12 25 12 12 10 13 -14 16 -21 2 -40 53 -28 75 8 16 5
26 -15 49 -14 17 -25 33 -25 36 0 13 28 5 45 -14 22 -24 41 -26 49 -4 4 10 14
14 25 11 10 -2 25 0 34 5 12 6 19 3 27 -12 18 -34 89 -22 88 15 0 6 21 17 47
26 26 9 52 24 57 33 7 13 13 14 29 6 26 -15 59 -3 59 20 0 30 14 31 50 5 25
-19 37 -22 47 -14 7 6 13 17 13 23 0 6 12 19 28 28 32 18 72 6 72 -23 0 -25
16 -32 40 -19 17 9 20 17 15 41 -9 39 0 37 46 -13z m2467 30 c-6 -18 -28 -21
-28 -4 0 9 7 16 16 16 9 0 14 -5 12 -12z m-2677 -21 c-13 -13 -26 -3 -16 12 3
6 11 8 17 5 6 -4 6 -10 -1 -17z m2729 -27 c0 -5 -4 -10 -9 -10 -6 0 -13 5 -16
10 -3 6 1 10 9 10 9 0 16 -4 16 -10z m-16 -63 c15 -24 -3 -35 -20 -13 -8 11
-14 24 -14 29 0 13 22 3 34 -16z m112 -75 c-4 -3 -12 0 -19 7 -9 9 -9 14 3 21
11 7 16 5 18 -6 2 -9 1 -18 -2 -22z m-16 -57 c0 -7 -7 -16 -15 -19 -20 -7 -33
23 -14 34 16 10 29 4 29 -15z m-1712 1 c62 -2 165 -41 159 -60 -4 -12 -9 -12
-137 4 -104 14 -132 21 -138 38 -4 13 37 33 51 25 4 -3 34 -6 65 -7z m1888
-193 c-7 -7 -46 16 -46 28 0 5 11 2 25 -7 14 -9 24 -19 21 -21z m164 -13 c0
-5 -2 -10 -4 -10 -3 0 -8 5 -11 10 -3 6 -1 10 4 10 6 0 11 -4 11 -10z m-305
-61 c11 -17 57 -9 78 15 l21 23 23 -27 c30 -36 29 -50 -2 -50 -14 0 -25 -4
-25 -9 0 -27 15 -41 41 -41 22 0 29 5 29 20 0 29 25 25 49 -8 16 -23 34 -32
96 -45 128 -29 177 -20 159 28 -12 30 55 5 90 -34 11 -12 31 -21 46 -21 15 0
29 -3 33 -6 3 -4 24 -7 47 -8 22 -1 46 -8 52 -14 19 -19 1 -25 -25 -8 -19 13
-30 14 -51 7 -27 -11 -68 -1 -81 18 -8 14 -55 14 -55 1 0 -5 -15 -9 -32 -9
-33 2 -75 -11 -135 -39 -24 -12 -37 -13 -56 -5 -13 6 -30 8 -37 3 -7 -4 -26
-4 -41 0 -28 8 -29 7 -29 -26 0 -30 -3 -34 -19 -29 -14 4 -20 0 -25 -17 -3
-13 -22 -34 -42 -48 -20 -14 -51 -37 -69 -52 -18 -16 -42 -28 -53 -28 -11 0
-23 -7 -26 -16 -5 -13 -9 -14 -21 -4 -13 10 -19 10 -33 -4 -24 -21 -29 -20
-42 3 -7 15 -6 23 5 34 13 14 11 19 -14 46 -16 17 -32 31 -36 31 -10 0 -45
-41 -45 -52 0 -4 -4 -8 -10 -8 -5 0 -10 5 -10 11 0 14 120 134 143 142 20 8
20 7 5 -30 -17 -42 -18 -53 -3 -53 8 0 17 9 20 21 4 11 18 24 31 29 13 5 24
14 24 20 0 6 5 8 10 5 6 -3 10 -16 10 -28 0 -12 9 -28 20 -35 11 -7 20 -8 20
-3 0 5 9 11 20 13 28 4 27 22 -2 28 -16 4 -23 13 -23 30 -1 29 -31 52 -44 32
-13 -21 -56 -11 -56 13 0 11 5 20 10 20 20 0 34 16 28 30 -7 21 -29 19 -53 -5
-11 -11 -17 -20 -13 -20 3 0 -4 -11 -17 -25 -13 -14 -31 -25 -39 -25 -9 0 -22
-9 -29 -20 -13 -22 -42 -27 -42 -7 0 6 16 27 35 46 41 40 49 89 15 98 -20 5
-20 5 0 30 11 14 20 34 20 44 0 21 29 25 61 9 26 -15 24 -29 -8 -41 -24 -9
-25 -11 -10 -26 20 -20 77 -25 83 -8 3 7 -7 32 -21 54 -15 22 -25 47 -22 55 5
13 10 13 36 0 17 -8 33 -19 36 -25z m-195 -4 c-7 -9 -15 -13 -18 -10 -3 2 1
11 8 20 7 9 15 13 18 10 3 -2 -1 -11 -8 -20z m525 -16 c11 -17 -1 -21 -15 -4
-8 9 -8 15 -2 15 6 0 14 -5 17 -11z m-2287 -69 c-11 -17 -38 -28 -38 -16 0 2
-3 11 -6 20 -5 13 1 16 25 16 29 0 30 -2 19 -20z m2782 -75 c0 -52 -3 -65 -15
-65 -9 0 -18 7 -21 15 -8 19 15 115 27 115 5 0 9 -29 9 -65z m-4160 -20 c0 -8
-9 -15 -20 -15 -11 0 -20 -4 -20 -10 0 -13 -27 -13 -35 1 -4 6 2 13 14 16 12
3 21 9 21 14 0 5 9 9 20 9 11 0 20 -7 20 -15z m1146 -52 c-2 -3 -9 -2 -15 2
-8 4 -7 13 1 28 l13 22 3 -23 c2 -13 1 -26 -2 -29z m-650 12 c4 -8 0 -22 -7
-31 -12 -14 -14 -14 -20 3 -4 10 -8 24 -8 31 -1 17 28 15 35 -3z m3532 -9 c8
-7 16 -31 18 -52 4 -31 -1 -45 -20 -69 -20 -24 -28 -27 -38 -17 -10 10 -10 17
0 33 12 18 10 26 -13 61 -32 48 -27 73 13 63 15 -3 33 -12 40 -19z m92 -31 c0
-29 -16 -41 -24 -19 -11 30 -7 54 9 48 8 -4 15 -17 15 -29z m-3750 1 c0 -8 -4
-17 -9 -21 -12 -7 -24 12 -16 25 9 15 25 12 25 -4z m-170 -32 c0 -20 -7 -17
-20 6 -9 16 -8 18 5 14 8 -4 15 -12 15 -20z m989 -10 c-13 -16 -29 -10 -29 11
0 8 7 11 20 8 16 -4 18 -8 9 -19z m1901 12 c0 -3 -4 -8 -10 -11 -5 -3 -10 -1
-10 4 0 6 5 11 10 11 6 0 10 -2 10 -4z m470 -42 c0 -8 -11 -19 -24 -26 -35
-15 -44 -42 -12 -34 36 9 39 -16 7 -60 -14 -22 -27 -45 -27 -51 -2 -37 -5 -39
-33 -35 -41 6 -43 20 -13 82 23 49 24 54 8 65 -26 20 -19 33 32 58 49 25 62
26 62 1z m-397 -41 c4 -3 2 -12 -4 -20 -9 -10 -15 -10 -25 -2 -8 6 -11 15 -8
20 6 11 28 12 37 2z m-2968 -13 c3 -5 2 -10 -4 -10 -5 0 -13 5 -16 10 -3 6 -2
10 4 10 5 0 13 -4 16 -10z m3806 -103 c7 -13 6 -19 -6 -23 -19 -8 -19 -28 0
-48 11 -11 12 -17 3 -22 -6 -4 -14 -2 -16 5 -2 7 -14 16 -27 21 -14 5 -24 20
-28 39 -7 34 -27 43 -27 12 0 -11 -3 -27 -6 -36 -6 -14 -8 -14 -25 1 -27 25
-24 38 24 88 l42 45 28 -32 c15 -18 32 -40 38 -50z m-601 68 c0 -12 -33 -55
-41 -55 -14 0 -10 22 8 42 15 17 33 24 33 13z m-163 -79 c-6 -16 -24 -25 -77
-41 -20 -6 -23 -5 -12 6 6 7 12 20 12 29 0 17 59 40 74 29 5 -4 6 -15 3 -23z
m103 -4 c0 -8 -54 -52 -65 -52 -11 0 -4 24 12 42 16 18 53 25 53 10z m185 -62
c3 -5 -1 -10 -9 -10 -9 0 -16 5 -16 10 0 6 4 10 9 10 6 0 13 -4 16 -10z m-81
-26 c22 -8 8 -34 -19 -34 -31 0 -40 16 -18 29 22 13 18 12 37 5z m-4643 -217
c-1 -12 -15 -9 -19 4 -3 6 1 10 8 8 6 -3 11 -8 11 -12z"/>
<path d="M3630 6575 c0 -8 5 -15 10 -15 6 0 10 7 10 15 0 8 -4 15 -10 15 -5 0
-10 -7 -10 -15z"/>
<path d="M3545 6390 c-3 -5 -1 -10 4 -10 6 0 11 5 11 10 0 6 -2 10 -4 10 -3 0
-8 -4 -11 -10z"/>
<path d="M3580 6080 c0 -5 5 -10 11 -10 5 0 7 5 4 10 -3 6 -8 10 -11 10 -2 0
-4 -4 -4 -10z"/>
<path d="M4850 5934 c0 -9 5 -14 12 -12 18 6 21 28 4 28 -9 0 -16 -7 -16 -16z"/>
<path d="M4790 5880 c-8 -5 -11 -12 -7 -16 4 -4 13 -2 19 4 15 15 7 24 -12 12z"/>
<path d="M4730 5840 c-12 -7 -12 -12 -2 -22 14 -14 35 1 24 19 -5 8 -13 9 -22
3z"/>
<path d="M3562 5625 c-7 -16 -19 -43 -27 -59 -23 -43 -3 -54 29 -16 27 33 29
40 16 80 l-7 25 -11 -30z"/>
<path d="M4270 5605 c-8 -9 -8 -15 -2 -15 12 0 26 19 19 26 -2 2 -10 -2 -17
-11z"/>
<path d="M3596 5515 c-12 -31 -7 -43 15 -38 13 4 19 12 17 26 -4 26 -24 33
-32 12z"/>
<path d="M3271 5486 c-9 -11 -9 -19 1 -35 18 -29 28 -26 28 8 0 35 -13 47 -29
27z"/>
<path d="M3467 5490 c-3 -8 -8 -41 -11 -73 -5 -67 13 -76 28 -14 10 38 -6 117
-17 87z"/>
<path d="M4237 5444 c-4 -4 -7 -14 -7 -23 0 -11 3 -12 11 -4 6 6 10 16 7 23
-2 6 -7 8 -11 4z"/>
<path d="M3564 5361 c-12 -9 -27 -28 -34 -41 -18 -33 -38 -183 -34 -251 6 -81
29 -206 41 -221 6 -7 13 -24 15 -37 4 -30 28 -41 28 -12 0 11 4 22 9 25 17 11
22 72 8 105 -12 27 -12 39 -1 69 11 31 17 37 39 35 22 -2 25 0 15 12 -7 8 -16
13 -20 10 -17 -11 -32 28 -33 89 -2 45 -7 70 -20 83 -22 25 -22 37 4 91 24 49
16 70 -17 43z"/>
<path d="M3750 5079 c0 -24 4 -38 10 -34 6 3 10 22 10 41 0 19 -4 34 -10 34
-5 0 -10 -18 -10 -41z"/>
<path d="M4025 5070 c-3 -5 -1 -10 4 -10 6 0 11 5 11 10 0 6 -2 10 -4 10 -3 0
-8 -4 -11 -10z"/>
<path d="M3334 4979 c-3 -6 -7 -30 -9 -53 -2 -53 49 -144 71 -125 23 19 16 47
-21 88 -38 42 -43 56 -20 65 8 3 12 12 9 21 -7 18 -20 20 -30 4z"/>
<path d="M3696 4924 c-5 -17 -1 -35 9 -50 8 -13 15 -32 15 -44 0 -30 17 -24
36 12 15 30 15 32 -4 47 -11 9 -22 25 -24 35 -5 30 -25 30 -32 0z"/>
<path d="M4929 6240 c-13 -10 -19 -19 -13 -20 6 0 19 9 29 20 23 26 14 26 -16
0z"/>
<path d="M4865 6200 c3 -5 8 -10 11 -10 2 0 4 5 4 10 0 6 -5 10 -11 10 -5 0
-7 -4 -4 -10z"/>
<path d="M2770 5363 c0 -16 -2 -41 -5 -58 -5 -25 -1 -35 24 -59 42 -40 60 -25
42 35 -9 30 -9 45 -2 52 15 15 14 23 -5 41 -26 27 -54 20 -54 -11z"/>
<path d="M2700 5221 c0 -6 4 -13 10 -16 6 -3 7 1 4 9 -7 18 -14 21 -14 7z"/>
<path d="M2385 5400 c-10 -16 5 -50 21 -50 18 0 18 14 -1 30 -8 7 -12 16 -9
21 3 5 3 9 0 9 -3 0 -8 -5 -11 -10z"/>
<path d="M6745 5170 c9 -14 66 -43 72 -36 6 5 -56 46 -70 46 -5 0 -5 -5 -2
-10z"/>
<path d="M5617 4863 c-4 -3 -7 -11 -7 -17 0 -6 5 -5 12 2 6 6 9 14 7 17 -3 3
-9 2 -12 -2z"/>
<path d="M4680 4757 c-14 -7 -26 -21 -28 -31 -2 -10 0 -16 6 -12 6 3 23 2 37
-4 25 -9 27 -14 22 -45 -5 -33 -4 -35 18 -29 20 5 23 3 18 -15 -3 -12 -1 -21
5 -21 17 0 31 25 26 46 -4 15 2 23 20 32 34 15 35 49 2 58 -14 3 -27 12 -30
20 -7 17 -62 18 -96 1z"/>
<path d="M4463 4701 c-13 -11 -23 -21 -23 -23 0 -2 18 -2 40 0 42 4 48 10 28
30 -16 16 -19 15 -45 -7z"/>
<path d="M4533 4676 c-24 -25 -43 -47 -43 -50 0 -3 13 -6 29 -6 27 0 121 61
121 79 0 10 -25 21 -48 21 -9 0 -36 -20 -59 -44z"/>
<path d="M6565 4670 c-28 -11 -66 -35 -84 -54 l-34 -35 32 -36 c44 -50 41 -77
-13 -115 -25 -16 -55 -29 -68 -28 -20 3 -23 -1 -22 -32 3 -115 25 -210 57
-247 11 -12 32 -25 48 -28 16 -4 33 -14 38 -22 7 -13 25 -16 83 -16 81 0 98 7
173 65 94 74 147 150 183 261 17 52 18 64 7 102 -31 103 -84 161 -174 192 -54
19 -167 15 -226 -7z m128 -274 c3 -12 -30 -32 -39 -24 -11 12 5 40 21 36 9 -2
17 -7 18 -12z"/>
<path d="M4261 4558 c-32 -43 -38 -63 -22 -72 5 -3 16 12 24 33 9 21 23 41 31
44 17 7 22 37 7 37 -5 0 -23 -19 -40 -42z"/>
<path d="M5590 4510 c0 -5 5 -10 11 -10 5 0 7 5 4 10 -3 6 -8 10 -11 10 -2 0
-4 -4 -4 -10z"/>
<path d="M5550 4274 c0 -6 7 -19 15 -30 8 -10 14 -14 14 -9 0 6 -6 19 -14 29
-8 11 -15 15 -15 10z"/>
<path d="M3925 4133 c-106 -17 -129 -26 -178 -72 -58 -54 -82 -105 -103 -215
-12 -60 -13 -86 -4 -104 6 -13 8 -33 5 -43 -8 -25 12 -96 30 -103 8 -3 22 -22
32 -43 15 -31 25 -39 58 -46 22 -5 53 -15 68 -23 43 -21 145 -18 214 8 59 23
143 83 143 104 0 6 9 23 20 37 18 22 20 40 20 146 0 114 -2 125 -29 179 -16
32 -40 63 -53 70 -13 7 -32 26 -43 41 -15 23 -22 27 -36 18 -13 -8 -29 -4 -70
19 -30 17 -63 29 -74 27z m33 -290 c-2 -10 -13 -19 -26 -21 -24 -4 -29 7 -10
26 18 18 40 15 36 -5z m184 -235 c-7 -7 -12 -8 -12 -2 0 6 3 14 7 17 3 4 9 5
12 2 2 -3 -1 -11 -7 -17z"/>
<path d="M5738 4048 c12 -12 24 -19 28 -15 10 10 -16 37 -34 37 -13 0 -12 -4
6 -22z"/>
<path d="M4229 3985 c17 -33 40 -59 47 -53 3 3 -9 21 -26 40 -17 18 -27 24
-21 13z"/>
<path d="M4366 3691 c-4 -7 -5 -15 -2 -18 9 -9 19 4 14 18 -4 11 -6 11 -12 0z"/>
<path d="M6427 3605 c-21 -20 -27 -35 -27 -66 0 -47 12 -44 39 9 41 82 37 102
-12 57z"/>
<path d="M3020 3595 c0 -8 2 -15 4 -15 2 0 6 7 10 15 3 8 1 15 -4 15 -6 0 -10
-7 -10 -15z"/>
<path d="M6782 3508 c-5 -7 -13 -34 -17 -59 -7 -44 0 -61 30 -71 13 -4 21 44
16 99 -3 44 -11 52 -29 31z"/>
<path d="M3549 3434 c-12 -14 -11 -16 5 -13 11 2 21 10 24 17 5 17 -13 15 -29
-4z"/>
<path d="M4366 3414 c-9 -24 -7 -28 9 -14 17 14 20 30 6 30 -5 0 -12 -7 -15
-16z"/>
<path d="M4317 3253 c-4 -3 -7 -11 -7 -17 0 -6 5 -5 12 2 6 6 9 14 7 17 -3 3
-9 2 -12 -2z"/>
<path d="M6340 3169 c0 -18 2 -19 15 -9 8 7 15 16 15 21 0 5 -7 9 -15 9 -9 0
-15 -9 -15 -21z"/>
<path d="M2890 3140 c0 -28 37 -96 47 -86 4 4 1 12 -5 18 -7 7 -12 21 -12 33
0 12 -7 30 -15 41 -14 18 -14 18 -15 -6z"/>
<path d="M6296 3115 c-10 -8 -24 -25 -30 -37 -12 -23 -25 -26 -95 -17 l-34 4
0 -44 c0 -37 6 -49 36 -77 40 -38 46 -39 100 -20 60 20 73 38 57 76 -12 28
-11 33 3 42 18 10 24 48 7 48 -5 0 -10 9 -10 20 0 23 -8 25 -34 5z"/>
<path d="M2936 3003 c3 -21 17 -52 30 -70 13 -17 24 -36 24 -41 0 -6 15 -23
33 -38 21 -18 33 -37 34 -56 1 -16 9 -38 19 -49 23 -25 40 -10 24 21 -17 31
-6 35 29 10 40 -28 40 -12 0 26 -17 16 -41 40 -53 53 -11 13 -31 34 -43 46
-13 12 -23 34 -23 49 0 17 -11 39 -29 57 -41 40 -53 38 -45 -8z"/>
<path d="M6013 3025 c-3 -9 -3 -19 1 -22 7 -7 36 16 36 28 0 15 -30 10 -37 -6z"/>
<path d="M6377 2953 c-12 -11 -8 -23 8 -23 8 0 15 7 15 15 0 16 -12 20 -23 8z"/>
<path d="M3169 2836 c24 -26 41 -33 41 -18 0 4 -15 15 -33 25 l-32 19 24 -26z"/>
<path d="M3270 2780 c0 -5 7 -10 15 -10 8 0 15 5 15 10 0 6 -7 10 -15 10 -8 0
-15 -4 -15 -10z"/>
<path d="M5850 2749 c0 -5 5 -7 10 -4 6 3 10 8 10 11 0 2 -4 4 -10 4 -5 0 -10
-5 -10 -11z"/>
<path d="M6066 2703 l-29 -35 39 7 c47 9 57 16 49 38 -11 28 -29 25 -59 -10z"/>
<path d="M4410 2640 c0 -5 5 -10 11 -10 5 0 7 5 4 10 -3 6 -8 10 -11 10 -2 0
-4 -4 -4 -10z"/>
<path d="M4480 2631 c0 -6 5 -13 10 -16 6 -3 10 1 10 9 0 9 -4 16 -10 16 -5 0
-10 -4 -10 -9z"/>
<path d="M5190 4591 c0 -10 7 -21 15 -25 11 -4 15 1 15 19 0 16 -6 25 -15 25
-8 0 -15 -9 -15 -19z"/>
<path d="M160 3736 c0 -9 7 -16 16 -16 17 0 14 22 -4 28 -7 2 -12 -3 -12 -12z"/>
<path d="M360 3642 c-27 -19 -70 -60 -70 -67 0 -12 34 -3 57 15 32 25 52 25
60 3 15 -48 38 -93 45 -93 15 0 8 55 -12 88 -11 18 -18 37 -15 42 3 5 -3 14
-14 19 -24 13 -21 14 -51 -7z"/>
<path d="M139 3648 c0 -2 -2 -19 -5 -38 -4 -32 -3 -33 11 -15 17 23 19 41 5
50 -5 3 -10 5 -11 3z"/>
<path d="M670 3410 c0 -23 25 -27 33 -6 7 16 -1 26 -20 26 -7 0 -13 -9 -13
-20z"/>
<path d="M653 3230 c-25 -23 -20 -56 8 -63 22 -6 26 -55 7 -77 -10 -10 -6 -10
12 2 22 13 69 81 70 100 0 3 -9 4 -20 1 -14 -4 -24 4 -38 26 -19 31 -19 31
-39 11z"/>
<path d="M590 3119 c0 -24 23 -21 28 4 2 10 -3 17 -12 17 -10 0 -16 -9 -16
-21z"/>
<path d="M796 3113 c-12 -12 -6 -33 9 -33 8 0 15 6 15 14 0 17 -14 28 -24 19z"/>
<path d="M710 3058 c-13 -23 -16 -36 -9 -49 13 -26 29 -33 29 -14 0 10 5 15
13 12 48 -20 47 -20 47 10 0 27 -34 73 -53 73 -4 0 -16 -14 -27 -32z"/>
<path d="M612 3048 c-16 -16 -16 -71 0 -66 16 6 32 58 21 69 -5 5 -14 4 -21
-3z"/>
<path d="M723 2905 c5 -42 27 -73 27 -38 0 12 3 28 6 36 3 10 -3 20 -16 27
-19 10 -20 9 -17 -25z"/>
<path d="M1366 2941 c-16 -18 -16 -20 6 -44 20 -21 26 -23 41 -12 9 7 17 19
17 28 0 48 -33 62 -64 28z"/>
<path d="M1292 2887 c-23 -28 29 -57 55 -31 15 14 17 28 4 20 -5 -3 -14 1 -21
9 -15 18 -24 19 -38 2z"/>
<path d="M1411 2850 c-23 -20 -23 -20 -2 -20 12 0 24 -7 27 -15 7 -16 44 -21
44 -6 0 5 -11 18 -25 29 -13 11 -21 22 -18 26 14 14 -3 4 -26 -14z"/>
<path d="M1250 2730 c-9 -6 -10 -10 -3 -10 6 0 15 5 18 10 8 12 4 12 -15 0z"/>
<path d="M1200 2665 c0 -8 4 -15 9 -15 5 0 11 7 15 15 3 9 0 15 -9 15 -8 0
-15 -7 -15 -15z"/>
<path d="M2790 2393 c0 -12 5 -25 10 -28 13 -8 13 15 0 35 -8 12 -10 11 -10
-7z"/>
<path d="M2001 2208 c12 -23 26 -23 38 0 8 15 5 18 -19 17 -24 0 -27 -3 -19
-17z"/>
<path d="M2977 2224 c-12 -12 -8 -79 5 -92 21 -21 26 -13 24 40 -1 48 -13 68
-29 52z"/>
<path d="M2583 2131 c-27 -22 -29 -31 -8 -31 8 0 15 4 15 10 0 5 6 7 14 4 12
-4 13 -12 5 -31 -11 -29 -6 -38 16 -30 19 8 19 30 0 67 -18 35 -14 34 -42 11z"/>
<path d="M2090 1785 c0 -8 5 -15 10 -15 6 0 10 7 10 15 0 8 -4 15 -10 15 -5 0
-10 -7 -10 -15z"/>
<path d="M5495 1836 c-11 -8 -16 -20 -12 -29 7 -19 33 -13 42 10 9 24 -8 35
-30 19z"/>
<path d="M5550 1831 c0 -12 6 -21 16 -21 9 0 14 7 12 17 -5 25 -28 28 -28 4z"/>
<path d="M5420 1789 c0 -5 5 -7 10 -4 6 3 10 8 10 11 0 2 -4 4 -10 4 -5 0 -10
-5 -10 -11z"/>
<path d="M5280 1611 c0 -5 6 -14 14 -20 12 -10 17 -8 26 8 9 19 8 21 -15 21
-14 0 -25 -4 -25 -9z"/>
<path d="M1420 6255 c-10 -12 -10 -15 4 -15 9 0 16 7 16 15 0 8 -2 15 -4 15
-2 0 -9 -7 -16 -15z"/>
<path d="M1610 6125 c-20 -25 -4 -61 32 -71 24 -7 35 -17 42 -42 9 -32 37 -44
51 -21 7 11 -35 99 -47 99 -3 0 -20 11 -36 25 -26 22 -31 23 -42 10z"/>
<path d="M1270 6020 c0 -5 5 -10 10 -10 6 0 10 5 10 10 0 6 -4 10 -10 10 -5 0
-10 -4 -10 -10z"/>
<path d="M1776 5885 c4 -8 10 -15 14 -15 5 0 17 -3 27 -6 14 -4 13 -1 -6 15
-27 25 -43 27 -35 6z"/>
<path d="M1680 5433 c1 -14 30 -47 36 -41 8 8 -14 48 -26 48 -6 0 -10 -3 -10
-7z"/>
<path d="M787 5104 c-15 -15 -6 -24 24 -24 20 0 29 4 27 13 -5 14 -40 21 -51
11z"/>
<path d="M487 5092 c-16 -2 -27 -8 -24 -15 5 -17 20 -18 41 -2 24 18 20 22
-17 17z"/>
<path d="M973 5060 c-41 -17 -27 -33 21 -26 27 4 47 3 51 -4 3 -5 19 -10 34
-10 15 0 31 -3 35 -7 3 -4 26 -8 51 -9 25 -1 55 -8 67 -15 24 -15 88 -14 88 1
0 10 -74 40 -100 40 -11 0 -29 5 -39 12 -15 9 -26 9 -45 0 -22 -10 -26 -8 -31
8 -5 17 -15 20 -58 19 -29 0 -62 -4 -74 -9z"/>
<path d="M1960 4949 c0 -9 7 -23 16 -30 9 -7 19 -22 23 -33 7 -17 8 -17 14 -2
4 10 -4 28 -23 49 -21 23 -29 27 -30 16z"/>
<path d="M950 4870 c0 -11 -2 -11 87 -15 36 -2 72 -11 87 -20 14 -10 26 -13
26 -7 0 25 -71 52 -136 52 -36 0 -64 -4 -64 -10z"/>
<path d="M1502 4843 c3 -19 48 -32 48 -14 0 10 -31 31 -45 31 -4 0 -5 -8 -3
-17z"/>
<path d="M2042 4818 c6 -13 13 -29 14 -36 4 -21 14 -28 14 -9 0 25 -19 67 -30
67 -7 0 -6 -8 2 -22z"/>
<path d="M1170 4820 c-15 -9 -16 -9 35 -25 21 -6 19 12 -3 24 -11 6 -24 6 -32
1z"/>
<path d="M387 4741 c-35 -35 -36 -39 -21 -52 14 -11 18 -11 22 -1 4 12 12 21
47 50 16 14 16 33 -1 39 -5 1 -26 -15 -47 -36z"/>
<path d="M171 4756 c-6 -7 -29 -21 -51 -31 -30 -14 -40 -24 -40 -42 0 -31 13
-29 57 10 21 19 46 37 56 40 9 4 17 11 17 16 0 15 -28 21 -39 7z"/>
<path d="M1506 4712 c-3 -6 -1 -14 5 -17 15 -10 25 3 12 16 -7 7 -13 7 -17 1z"/>
<path d="M1971 4657 c-6 -6 -17 -12 -23 -12 -6 0 -13 -6 -15 -12 -3 -7 2 -13
11 -13 9 0 16 5 16 11 0 5 5 7 12 3 6 -4 8 -3 4 4 -3 5 0 12 6 15 7 2 10 7 7
10 -3 4 -11 1 -18 -6z"/>
<path d="M1562 4644 c1 -9 9 -19 16 -22 9 -3 13 2 10 14 -1 9 -9 19 -16 22 -9
3 -13 -2 -10 -14z"/>
<path d="M2092 4613 c2 -10 11 -19 21 -21 24 -5 21 15 -4 28 -18 10 -20 9 -17
-7z"/>
<path d="M523 4583 c4 -6 -2 -18 -12 -27 -13 -12 -24 -14 -42 -8 -15 6 -33 5
-46 -1 -18 -8 -20 -14 -12 -28 12 -23 25 -24 62 -4 22 11 34 12 49 4 22 -12
88 -4 112 14 25 19 3 39 -46 41 -24 1 -50 6 -57 11 -9 5 -12 4 -8 -2z"/>
<path d="M1860 4555 c7 -8 16 -15 21 -15 5 0 9 7 9 15 0 9 -9 15 -21 15 -18 0
-19 -2 -9 -15z"/>
<path d="M1910 4526 c0 -15 37 -32 47 -22 9 8 -17 36 -33 36 -8 0 -14 -6 -14
-14z"/>
<path d="M1581 2004 c0 -11 3 -14 6 -6 3 7 2 16 -1 19 -3 4 -6 -2 -5 -13z"/>
<path d="M1771 1924 c0 -11 3 -14 6 -6 3 7 2 16 -1 19 -3 4 -6 -2 -5 -13z"/>
<path d="M1805 1830 c3 -5 8 -10 11 -10 2 0 4 5 4 10 0 6 -5 10 -11 10 -5 0
-7 -4 -4 -10z"/>
</g>
</svg>
